<svg width="502" height="88" viewBox="0 0 502 88" fill="none" xmlns="http://www.w3.org/2000/svg">
<path d="M106.674 7.1H138.04L141.547 16.8C140.244 14.1 138.441 12 135.835 10.4C133.33 8.8 130.624 8 127.618 8H123.008C121.706 8 120.603 8.4 119.701 9.3C118.799 10.2 118.298 11.2 118.298 12.5V25.8H127.518C129.121 25.8 130.524 25.3 131.727 24.3C132.929 23.3 133.631 22 133.931 20.4V32.1C133.731 30.6 132.929 29.3 131.727 28.2C130.524 27.2 129.121 26.7 127.518 26.7H118.298V44.3C118.298 45.7 118.699 46.9 119.601 47.8C120.503 48.9 121.505 49.5 122.808 49.8H106.674C107.977 49.5 109.079 48.9 109.881 47.8C110.682 46.8 111.083 45.6 111.083 44.3V12.5C111.083 11.2 110.682 10 109.781 9C108.979 7.9 107.877 7.3 106.674 7V7.1Z" fill="black"/>
<path d="M160.888 48.9999C163.894 48.9999 166.6 48.1999 169.105 46.5999C171.61 44.9999 173.514 42.8999 174.817 40.1999L171.309 49.8999H140.846C142.148 49.6999 143.151 48.9999 144.052 47.8999C144.954 46.7999 145.355 45.6999 145.355 44.3999V12.5999C145.355 11.2999 144.954 10.0999 144.052 9.09985C143.251 8.09985 142.148 7.39985 140.846 7.09985H156.979C155.677 7.29985 154.574 7.99986 153.773 8.99986C152.971 9.99986 152.47 11.1999 152.47 12.5999V44.4999C152.47 45.7999 152.971 46.7999 153.873 47.6999C154.775 48.5999 155.877 48.9999 157.18 48.9999H160.888Z" fill="black"/>
<path d="M190.85 8.1C189.548 8.1 188.546 8.5 187.644 9.4C186.742 10.3 186.341 11.3 186.341 12.6V25.9H195.56C197.063 25.9 198.466 25.4 199.669 24.4C200.871 23.4 201.573 22.1 201.874 20.5V32.2C201.573 30.7 200.871 29.4 199.669 28.3C198.466 27.3 197.063 26.8 195.56 26.8H186.341V44.5C186.341 45.7 186.742 46.8 187.644 47.6C188.546 48.5 189.648 48.9 190.85 48.9H195.661C198.567 48.9 201.372 48.1 203.878 46.5C206.383 44.9 208.287 42.8 209.59 40.1L206.082 49.8H174.616C175.919 49.5 177.021 48.9 177.823 47.8C178.625 46.8 179.126 45.6 179.126 44.3V12.5C179.126 11.2 178.725 10 177.923 9C177.021 7.9 175.919 7.3 174.717 7H206.183L209.69 16.7C208.387 14 206.483 11.9 203.978 10.3C201.473 8.7 198.767 7.9 195.761 7.9H191.051L190.85 8.1Z" fill="black"/>
<path d="M242.96 45.2C244.463 47.8 246.667 49.4 249.573 50H232.738C233.44 49.8 234.041 49.5 234.542 48.9C235.043 48.3 235.243 47.7 235.243 47C235.243 46.3 235.043 45.9 234.742 45.4L226.425 30.8L216.705 45.5C216.204 46.4 216.204 47.3 216.705 48.2C217.105 49.1 217.907 49.7 218.809 49.9H209.289C211.794 49.4 213.999 47.8 215.803 44.9L224.02 32.7C225.323 30.8 225.323 28.8 224.12 26.7L215.702 12C214.199 9.3 211.894 7.6 208.888 7H225.723C225.022 7.2 224.421 7.5 224.02 8.1C223.619 8.7 223.419 9.3 223.419 10C223.419 10.7 223.519 11 223.819 11.5L231.435 24.9L239.051 11.6C239.252 11.2 239.452 10.7 239.452 10.2C239.452 9.4 239.252 8.7 238.751 8.2C238.25 7.6 237.648 7.2 236.947 7.1H246.367C243.661 7.7 241.657 9.3 240.053 12L233.64 22.9C233.139 23.8 232.939 24.9 232.939 26.1C232.939 27.3 233.239 28.3 233.74 29.2L242.96 45.2Z" fill="black"/>
<path d="M287.954 28.3999H310.801C310.801 30.1999 310.801 31.6999 310.701 33.1999C310.701 34.5999 310.401 36.1999 310.1 37.7999C309.799 39.3999 309.399 40.8999 308.797 42.0999C308.296 43.2999 307.595 44.5999 306.693 45.7999C305.791 46.9999 304.689 47.9999 303.486 48.7999C302.284 49.5999 300.78 50.1999 298.876 50.6999C297.073 51.1999 295.069 51.3999 292.864 51.3999C290.659 51.3999 286.952 50.8999 284.346 49.8999C281.741 48.8999 279.636 47.4999 277.933 45.7999C276.229 44.0999 274.826 42.0999 273.624 39.8999C272.421 37.6999 271.72 35.3999 271.519 32.8999C271.219 30.4999 271.219 27.9999 271.519 25.5999C271.72 23.1999 272.421 20.7999 273.523 18.5999C274.626 16.3999 276.029 14.3999 277.632 12.6999C279.235 10.9999 281.34 9.59985 283.845 8.59985C286.35 7.59985 289.156 7.09985 292.162 7.09985H304.889L308.396 17.0999C307.094 14.3999 305.29 12.1999 302.684 10.5999C300.179 8.99985 297.474 8.19985 294.467 8.19985H293.365C290.459 8.19985 287.954 9.19986 285.749 11.2999C283.544 13.2999 282.041 15.8999 281.039 18.8999C280.037 21.9999 279.536 25.2999 279.436 28.8999C279.436 32.4999 279.837 35.7999 280.738 38.9999C281.64 42.0999 283.144 44.6999 285.248 46.8999C287.352 48.9999 289.858 50.1999 292.864 50.3999C298.175 50.3999 301.783 48.5999 303.887 44.9999C305.49 42.1999 305.791 39.1999 304.588 35.9999C303.486 32.9999 301.582 30.9999 298.776 30.0999C297.774 29.7999 296.672 29.5999 295.57 29.5999H287.954V28.5999V28.3999Z" fill="black"/>
<path d="M330.443 48.9999C333.449 48.9999 336.155 48.1999 338.66 46.5999C341.165 44.9999 343.069 42.8999 344.372 40.1999L340.864 49.8999H310.401C311.703 49.6999 312.705 48.9999 313.607 47.8999C314.509 46.7999 314.91 45.6999 314.91 44.3999V12.5999C314.91 11.2999 314.509 10.0999 313.607 9.09985C312.806 8.09985 311.703 7.39985 310.401 7.09985H326.534C325.232 7.29985 324.129 7.99986 323.328 8.99986C322.526 9.99986 322.025 11.1999 322.025 12.5999V44.4999C322.025 45.7999 322.526 46.7999 323.428 47.6999C324.33 48.5999 325.432 48.9999 326.735 48.9999H330.443Z" fill="black"/>
<path d="M367.921 5.69995C372.13 5.69995 375.938 6.69996 379.546 8.79996C383.053 10.8 385.859 13.6 387.963 17.1C390.068 20.6 391.07 24.4 391.07 28.6C391.07 32.8 390.068 36.6 387.963 40.1C385.859 43.6 383.053 46.4 379.546 48.5C376.038 50.6 372.13 51.6 367.921 51.6C363.712 51.6 359.804 50.6 356.297 48.5C352.689 46.4 349.883 43.6 347.879 40.1C345.775 36.6 344.773 32.7 344.773 28.6C344.773 24.5 345.775 20.7 347.879 17.1C349.984 13.6 352.789 10.8 356.297 8.79996C359.904 6.79996 363.712 5.69995 367.921 5.69995ZM367.921 50.6C377.441 50.6 382.151 43.3 382.151 28.7C382.151 14.1 377.441 6.59995 367.921 6.59995C358.401 6.59995 353.491 13.9 353.491 28.6C353.491 43.3 358.301 50.6 367.921 50.6Z" fill="black"/>
<path d="M411.312 26.1C413.416 26.1 415.32 26.1 417.024 26.5C418.828 26.8 420.431 27.4 421.934 28.3C423.437 29.2 424.64 30.4 425.442 32C426.344 33.6 426.744 35.6 426.744 37.9C426.744 41.3 425.442 44.2 422.936 46.5C420.431 48.8 417.124 50 413.116 50H390.569C391.871 49.7 392.974 49.1 393.775 48C394.577 47 395.078 45.8 395.078 44.5V12.7C395.078 11.4 394.677 10.2 393.775 9.19995C392.974 8.19995 391.871 7.49995 390.569 7.19995H411.412C414.719 7.19995 417.325 7.89996 419.429 9.39996C421.533 10.9 422.536 13.1 422.536 16.2C422.536 19.3 422.335 18.5 421.934 19.5C421.533 20.5 421.032 21.3 420.531 21.9C420.03 22.5 419.229 23.1 418.327 23.6C417.325 24.1 416.523 24.5 415.922 24.7C415.32 24.9 414.419 25.2 413.416 25.5C412.414 25.8 411.713 26 411.412 26.1H411.312ZM407.604 8.09995C406.101 8.09995 404.899 8.49996 403.796 9.39996C402.794 10.3 402.193 11.3 402.193 12.6V26.8C402.794 26.8 403.395 26.6 403.997 26.5C404.598 26.4 405.5 26.2 406.602 26C407.704 25.7 408.707 25.4 409.608 24.9C410.51 24.4 411.412 23.8 412.314 23.2C413.216 22.5 413.917 21.7 414.419 20.6C414.92 19.5 415.22 18.4 415.22 17.1C415.22 14.5 414.619 12.4 413.416 10.7C412.214 8.99995 410.41 8.19995 408.105 8.19995H407.504L407.604 8.09995ZM408.306 49C411.412 49 414.018 47.9 416.222 45.7C418.427 43.5 419.429 40.9 419.429 37.8C419.429 34.7 419.128 35.1 418.527 33.9C417.926 32.7 417.224 31.8 416.423 31C415.621 30.2 414.619 29.6 413.416 29C412.214 28.4 411.112 28 410.009 27.7C408.907 27.4 407.805 27.2 406.602 27C405.4 26.8 404.498 26.7 403.897 26.7C403.295 26.7 402.694 26.7 402.193 26.7V44.4C402.193 45.7 402.694 46.8 403.696 47.6C404.698 48.4 406.001 48.9 407.704 48.9H408.306V49Z" fill="black"/>
<path d="M466.828 49.9H450.694C451.897 49.6 452.699 49 453.2 47.9C453.701 46.9 453.701 45.7 453.2 44.4L451.095 38.3H434.16L432.055 44.4C431.655 45.7 431.655 46.9 432.055 47.9C432.557 48.9 433.358 49.6 434.561 49.9H424.84C426.243 49.6 427.546 49 428.749 47.9C429.951 46.9 430.753 45.7 431.154 44.4L442.177 12.7C441.776 11.2 440.874 10.1 439.772 9C438.569 8 437.266 7.3 435.863 7H451.997C450.795 7.3 449.893 7.9 449.492 9C448.991 10 448.991 11.2 449.492 12.5L460.515 44.3C461.016 45.6 461.818 46.8 463.02 47.8C464.223 48.8 465.526 49.5 466.928 49.8L466.828 49.9ZM434.46 37.5H450.694L442.577 14L434.46 37.5Z" fill="black"/>
<path d="M487.171 48.9999C490.177 48.9999 492.883 48.1999 495.388 46.5999C497.893 44.9999 499.797 42.8999 501.1 40.1999L497.593 49.8999H467.129C468.432 49.6999 469.434 48.9999 470.336 47.8999C471.237 46.7999 471.638 45.6999 471.638 44.3999V12.5999C471.638 11.2999 471.237 10.0999 470.336 9.09985C469.534 8.09985 468.432 7.39985 467.129 7.09985H483.263C481.96 7.29985 480.858 7.99986 480.056 8.99986C479.254 9.99986 478.753 11.1999 478.753 12.5999V44.4999C478.753 45.7999 479.254 46.7999 480.156 47.6999C481.058 48.5999 482.16 48.9999 483.463 48.9999H487.171Z" fill="black"/>
<path d="M195.961 82.0998V71.7998H198.166V82.0998H195.961Z" fill="#BC9B5F"/>
<path d="M216.404 82.0998V71.7998H218.809L221.514 75.8998C221.715 76.1998 222.015 76.5998 222.316 77.0998C222.617 77.4998 222.817 77.8998 223.018 78.1998L223.318 78.5998V71.8998H225.523V82.1998H223.118L220.512 78.2998C220.212 77.8998 219.911 77.3998 219.61 76.8998C219.31 76.3998 219.009 75.9998 218.809 75.6998L218.508 75.2998V82.0998H216.303H216.404Z" fill="#BC9B5F"/>
<path d="M243.26 80.7999L244.062 79.0999C245.164 79.8999 246.266 80.1999 247.469 80.1999C248.671 80.1999 248.471 80.0999 248.872 79.7999C249.273 79.5999 249.473 79.2999 249.473 78.8999C249.473 78.4999 249.273 78.2999 248.972 78.0999C248.671 77.8999 248.17 77.7999 247.569 77.5999C247.168 77.4999 246.767 77.3999 246.366 77.2999C246.066 77.2999 245.665 77.0999 245.364 76.8999C245.064 76.6999 244.663 76.4999 244.463 76.2999C244.262 76.0999 244.062 75.7999 243.861 75.4999C243.661 75.1999 243.661 74.7999 243.661 74.3999C243.661 73.4999 244.062 72.6999 244.763 72.1999C245.565 71.6999 246.467 71.3999 247.469 71.3999C248.471 71.3999 250.174 71.7999 251.277 72.4999L250.475 74.1999C249.573 73.5999 248.571 73.3999 247.469 73.3999C246.366 73.3999 246.767 73.3999 246.366 73.5999C245.966 73.7999 245.865 73.9999 245.865 74.3999C245.865 74.7999 246.066 74.8999 246.366 75.0999C246.667 75.2999 247.168 75.3999 247.87 75.5999C250.475 76.1999 251.778 77.2999 251.778 78.8999C251.778 80.4999 251.377 80.6999 250.475 81.2999C249.673 81.8999 248.671 82.0999 247.469 82.0999C245.765 82.0999 244.362 81.5999 243.26 80.6999V80.7999Z" fill="#BC9B5F"/>
<path d="M276.931 81.1C276.029 81.9 275.027 82.3 273.824 82.3C272.622 82.3 271.519 81.9 270.718 81.1C269.816 80.3 269.415 79.3 269.415 78V71.7H271.619V77.8999C271.619 78.5999 271.82 79.1 272.221 79.6C272.622 80 273.223 80.2 273.824 80.2C274.425 80.2 275.027 80 275.427 79.6C275.828 79.2 276.029 78.5999 276.029 77.8999V71.7H278.233V78C278.233 79.2 277.832 80.3 276.931 81V81.1Z" fill="#BC9B5F"/>
<path d="M296.271 82.0998V71.7998H300.68C302.183 71.7998 303.286 72.1998 304.087 72.8998C304.889 73.5998 305.29 74.5998 305.29 75.7998C305.29 76.9998 305.089 77.0998 304.789 77.6998C304.488 78.2998 303.987 78.7998 303.386 79.0998L305.59 82.0998H302.885L301.281 79.6998C300.881 79.6998 300.38 79.6998 299.778 79.6998H298.576V82.0998H296.371H296.271ZM298.476 77.7998H300.78C301.482 77.7998 301.983 77.5998 302.384 77.1998C302.785 76.7998 302.985 76.2998 302.985 75.6998C302.985 75.0998 302.785 74.5998 302.384 74.1998C301.983 73.7998 301.482 73.5998 300.78 73.5998H298.476V77.6998V77.7998Z" fill="#BC9B5F"/>
<path d="M322.125 82.0998L326.634 71.7998H328.839L333.248 82.0998H331.144L330.442 80.4998H325.232L324.53 82.0998H322.225H322.125ZM325.933 78.6998H329.741L328.939 76.7998L327.837 74.1998C327.436 75.2998 327.136 76.1998 326.835 76.8998L326.033 78.7998L325.933 78.6998Z" fill="#BC9B5F"/>
<path d="M350.585 82.0998V71.7998H352.99L355.696 75.8998C355.896 76.1998 356.197 76.5998 356.497 77.0998C356.798 77.4998 356.998 77.8998 357.199 78.1998L357.499 78.5998V71.8998H359.704V82.1998H357.299L354.693 78.2998C354.393 77.8998 354.092 77.3998 353.792 76.8998C353.491 76.3998 353.19 75.9998 352.99 75.6998L352.689 75.2998V82.0998H350.485H350.585Z" fill="#BC9B5F"/>
<path d="M377.441 76.8998C377.441 75.3998 377.942 74.1999 379.044 73.0999C380.046 72.0999 381.349 71.5999 382.952 71.5999C384.556 71.5999 385.357 71.9998 386.36 72.6998L385.057 74.1998C384.456 73.7998 383.854 73.5999 383.053 73.5999C382.251 73.5999 381.249 73.8999 380.648 74.5999C380.046 75.1999 379.746 75.9998 379.746 76.8998C379.746 77.7998 380.046 78.5998 380.648 79.1998C381.249 79.7998 382.051 80.1998 382.952 80.1998C383.854 80.1998 384.656 79.8998 385.257 79.3998L386.66 80.8998C385.658 81.7998 384.456 82.1998 382.952 82.1998C381.449 82.1998 380.046 81.6998 379.044 80.6998C378.042 79.6998 377.441 78.3998 377.441 76.8998Z" fill="#BC9B5F"/>
<path d="M403.996 82.0998V71.7998H412.113V73.6998H406.201V75.7998H411.813V77.6998H406.201V80.1998H412.314V82.0998H403.896H403.996Z" fill="#BC9B5F"/>
<path d="M46.9492 27.1001C46.9492 28.6001 45.7467 29.8001 44.2435 29.8001C42.7404 29.8001 41.5378 28.6001 41.5378 27.1001H47.0494H46.9492Z" fill="black"/>
<path d="M11.5749 24.3C10.7733 23.7 9.87138 23 8.96949 22C4.86089 17.9 2.55606 12.7 2.25543 10.2C2.25543 10.2 0.351447 17 7.16572 23.9C9.16991 25.9 11.0739 27.2 12.076 27.8C11.8756 26.6 11.6752 25.4 11.6752 24.2L11.5749 24.3Z" fill="black"/>
<path d="M12.3766 17C11.4747 16.2 10.2722 15 9.06969 13.4C7.76696 11.7 6.66465 9.8 5.86298 7.8C4.86088 5.3 4.25962 2.7 4.0592 0C4.0592 0 1.45374 8.2 6.96528 15.1C9.06969 17.8 11.0739 19.4 11.7754 19.9C11.8756 18.9 12.076 17.9 12.3766 16.9V17Z" fill="black"/>
<path d="M12.7776 50.2C12.7776 50.4 16.4854 54.7 23.0992 55.4C20.8946 54 18.7902 52.4 16.9864 50.6L12.7776 50.2Z" fill="black"/>
<path d="M9.87139 40.1999C9.67097 39.6999 9.37034 39.1999 9.16992 38.6999C7.86719 37.8999 5.46216 36.3999 5.46216 36.3999C5.46216 36.3999 5.76279 41.0999 9.9716 44.9999C11.9758 46.8999 14.1804 47.5999 14.7817 47.8999C12.8777 45.5999 11.1741 42.9999 9.87139 40.2999V40.1999Z" fill="black"/>
<path d="M19.5918 45.2C17.6878 43 16.0845 40.6 14.7817 38C13.6794 35.7 13.0782 33.6 12.7775 32.3C12.7775 32.3 12.7775 32.2 12.7775 32.1L10.3725 30.6C10.1721 30.5 9.97167 30.4 9.77125 30.2C9.77125 30.4 9.87146 31.2 10.0719 32.3C8.1679 31 6.56454 29.6 5.1616 28C3.75866 26.3 2.65635 24.5 1.85468 22.5C0.752367 19.8 0.451738 17.4 0.551948 16.5C0.551948 16.5 -1.75288 23.2 3.05719 29.6C4.86097 32 7.46643 34 10.3725 35.6L11.1742 36.1C11.4748 37 11.8757 38 12.3767 39C13.6794 41.9 15.4832 44.5 17.5876 46.9C19.7922 49.4 22.4979 51.6 25.5042 53.4C26.2057 52.8 26.9071 52.2 27.7088 51.6C24.6023 49.9 21.8966 47.7 19.5918 45.2Z" fill="black"/>
<path d="M8.26808 48.3999C8.26808 48.3999 8.26808 48.1999 8.16787 48.0999C7.96745 47.8999 7.76703 47.6999 7.56661 47.4999C5.86304 45.8999 4.46011 43.9999 3.45801 41.8999C3.65843 43.2999 4.15948 46.1999 5.86304 49.4999C7.16577 51.9999 8.96955 54.1999 11.1742 55.8999C13.479 57.7999 16.2849 59.0999 19.4916 59.8999L19.692 59.5999C19.692 59.4999 20.2933 58.6999 21.2954 57.5999C17.9884 56.8999 15.1826 55.6999 12.8777 53.8999C10.9737 52.3999 9.4706 50.5999 8.26808 48.3999Z" fill="black"/>
<path d="M68.1937 24.3C68.9954 23.7 69.8972 23 70.7991 22C74.9077 17.9 77.2126 12.7 77.5132 10.2C77.5132 10.2 79.4172 17 72.6029 23.9C70.5987 25.9 68.6947 27.2 67.6926 27.8C67.893 26.6 68.0935 25.4 68.0935 24.2L68.1937 24.3Z" fill="black"/>
<path d="M67.3918 17C68.2937 16.2 69.4963 15 70.6988 13.4C72.0015 11.7 73.1038 9.8 73.9055 7.8C74.9076 5.3 75.5088 2.7 75.7093 0C75.7093 0 78.3147 8.2 72.8032 15.1C67.2916 22 68.6946 19.4 67.9931 19.9C67.8929 18.9 67.6925 17.9 67.3918 16.9V17Z" fill="black"/>
<path d="M69.8971 40.1999C70.0975 39.6999 70.3981 39.1999 70.5986 38.6999C71.9013 37.8999 74.3063 36.3999 74.3063 36.3999C74.3063 36.3999 74.0057 41.0999 69.7969 44.9999C67.7927 46.8999 65.5881 47.5999 64.9868 47.8999C66.8908 45.5999 68.5944 42.9999 69.8971 40.2999V40.1999Z" fill="black"/>
<path d="M79.3168 16.5C79.3168 17.4 79.1164 19.8 78.0141 22.5C77.2124 24.5 76.1101 26.3 74.7072 28C73.3042 29.6 71.7009 31.1 69.7969 32.3C69.9973 31.2 70.0975 30.5 70.0975 30.2C69.8971 30.4 69.5965 30.5 69.4963 30.6L67.0912 32.1C67.0912 32.1 67.0912 32.2 67.0912 32.3C66.7906 33.6 66.1893 35.5 65.1872 37.8C65.1872 38.6 65.2874 39.3 65.2874 40C65.2874 41.2 65.2874 42.4 64.9868 43.5C65.9889 42.1 66.7906 40.6 67.4921 39.1C67.9931 38.1 68.3939 37.1 68.6946 36.2L69.4963 35.7C72.4023 34 75.0078 32.1 76.8116 29.7C81.6216 23.3 79.3168 16.6 79.3168 16.6V16.5Z" fill="black"/>
<path d="M60.4774 26.2C60.6778 26.4 60.778 26.7 60.9785 26.9C61.4795 23.8 60.9785 21.5 60.778 20.7L57.9722 23.5C58.8741 24.3 59.6757 25.2 60.3772 26.2H60.4774Z" fill="black"/>
<path d="M21.4957 42.2999C22.7985 43.6999 24.3016 44.8999 25.905 45.8999C27.9092 47.0999 30.0136 47.9999 32.4186 48.5999C33.8215 47.8999 35.1243 47.2999 36.3268 46.6999C32.8194 46.1999 29.8131 45.1999 27.3079 43.6999C24.4018 41.8999 21.9968 39.4999 20.0928 36.1999C18.3892 33.1999 17.1867 30.2999 16.5854 27.4999C16.0844 25.2999 15.9842 23.0999 16.2848 20.9999C16.385 20.0999 16.5854 19.3999 16.7859 18.6999L14.6815 16.5999C14.2806 17.5999 13.98 18.9999 13.6794 20.4999C13.3787 22.8999 13.4789 25.3999 13.98 27.8999C14.5812 30.9999 15.884 34.2999 17.788 37.4999C18.8903 39.3999 20.0928 40.9999 21.4957 42.3999V42.2999Z" fill="black"/>
<path d="M66.0891 20.2999C65.8887 18.6999 65.4879 17.3999 65.087 16.3999L62.9826 18.4999C63.183 19.1999 63.2833 19.8999 63.4837 20.7999C63.6841 22.8999 63.5839 24.9999 63.183 27.2999C62.9826 27.9999 62.8824 28.7999 62.5818 29.4999C63.183 30.6999 63.6841 31.8999 64.0849 33.0999C64.8866 31.2999 65.3877 29.4999 65.7885 27.6999C66.2895 25.1999 66.3898 22.6999 66.0891 20.2999Z" fill="black"/>
<path d="M72.2021 47.6C72.0017 47.8 71.8012 48 71.6008 48.2C71.6008 48.2 71.6008 48.4 71.5006 48.5C70.2981 50.7 68.7949 52.5 66.8909 54C66.1895 54.6 65.3878 55.1 64.5861 55.5C63.9849 56.5 62.7823 58 60.7781 59.6C60.5777 59.7 60.4775 59.9 60.2771 60C63.4838 59.2 66.2897 57.9 68.5945 56C70.7991 54.3 72.6029 52.1 73.9056 49.6C75.6092 46.4 76.2105 43.4 76.3107 42C75.3086 44.1 73.9056 46 72.2021 47.6Z" fill="black"/>
<path d="M62.5818 61.8001C60.9785 65.3001 57.872 71.2001 52.8615 76.0001C48.9533 79.8001 45.5462 82.0001 43.4418 83.2001C41.8384 84.1001 40.6359 84.6001 40.1348 84.8001C39.5336 84.6001 38.3311 84.1001 36.8279 83.2001C34.7235 82.0001 31.3164 79.8001 27.4082 76.0001C23.5 72.2001 20.6941 67.8001 19.0908 64.7001C18.5897 63.7001 18.0887 62.7001 17.6878 61.9001C16.2849 61.5001 14.9822 60.9001 13.6794 60.3001C13.9801 61.2001 14.882 63.4001 16.2849 66.0001C17.9885 69.3001 20.9948 74.1001 25.2036 78.1001C33.3206 85.9001 39.4334 87.7001 39.734 87.7001H40.1348C40.1348 87.8001 40.5357 87.7001 40.5357 87.7001C40.8363 87.7001 46.9491 85.9001 55.0661 78.1001C59.2749 74.0001 62.2812 69.2001 63.9848 66.0001C65.4879 63.1001 66.3898 60.9001 66.6904 60.1001C65.3877 60.8001 64.085 61.3001 62.6821 61.8001H62.5818Z" fill="#BC9B5F"/>
<path d="M63.9847 14.5999L62.7822 12.5999L62.5818 12.3999C62.5818 12.3999 60.3772 10.6999 56.469 9.0999C54.1642 8.1999 51.7591 7.3999 49.3541 6.8999C46.2476 6.1999 43.0409 5.8999 39.734 5.8999C36.427 5.8999 33.2203 6.1999 30.1138 6.8999C27.6086 7.3999 25.2035 8.1999 22.9989 9.0999C19.0907 10.6999 16.9863 12.3999 16.8861 12.3999L16.5855 12.5999L15.6836 14.3999L17.788 16.4999L18.7901 14.3999C19.3914 13.9999 21.2953 12.7999 24.1012 11.5999C26.2056 10.6999 28.4102 9.9999 30.7151 9.4999C33.6212 8.8999 36.6275 8.5999 39.6337 8.5999C42.64 8.5999 45.6463 8.8999 48.5524 9.4999C50.8572 9.9999 53.0619 10.6999 55.1663 11.5999C58.1726 12.7999 59.9763 14.0999 60.5776 14.4999L61.8803 16.5999L63.8845 14.5999H63.9847Z" fill="#BC9B5F"/>
<path d="M60.1768 51.8C60.1768 51.8 59.2749 53.4 57.0703 55.3C54.064 57.9 50.9575 59.5 47.7507 61.3C45.1453 62.7 42.4396 64.2 39.8342 66.1C35.7256 69.2 32.9197 72.4 31.2161 74.5C31.0157 74.8 30.7151 75.1 30.5146 75.4C31.2161 76 31.9176 76.6 32.5188 77.2C32.7193 76.9 33.0199 76.5 33.3205 76.2C34.9239 74.2 37.5293 71.2 41.3373 68.4C43.8426 66.5 46.2476 65.2 48.9533 63.8C52.16 62.1 55.5671 60.3 58.7738 57.5C60.4774 56 61.4795 54.8 62.0807 54C62.4816 54 67.3919 52.6 68.5944 49.5C64.586 52 60.1768 52 60.1768 52V51.8Z" fill="black"/>
<path d="M50.4565 69.8001C51.8595 68.0001 55.1664 64.2001 58.0725 61.6001C55.467 63.5001 48.9534 65.8001 44.6444 73.8001C43.3416 76.3001 42.2393 79.4001 41.7383 81.1001C41.8385 81.1001 42.0389 81.0001 42.1391 80.9001C43.041 80.4001 44.0431 79.8001 45.3458 78.9001C45.7467 77.9001 46.3479 76.6001 47.1496 75.1001C48.1517 73.2001 49.254 71.5001 50.5567 69.9001L50.4565 69.8001Z" fill="black"/>
<path d="M35.2245 79.2C36.1264 79.8 36.928 80.3 37.5293 80.7C40.4354 74.3 43.4417 69.5 43.4417 69.5C43.2413 69.7 39.1327 73.2 35.1243 79.2H35.2245Z" fill="black"/>
<path d="M30.615 64.5999C33.4209 61.4999 37.5295 58.6999 42.8406 56.0999C52.4607 51.4999 56.3689 46.8999 56.3689 40.0999C56.3689 33.2999 54.0641 31.4999 52.9618 30.3999L51.4586 32.6999C51.659 32.9999 51.9597 33.3999 52.2603 33.8999C52.9618 35.0999 53.6632 37.0999 53.6632 40.0999C53.6632 43.0999 52.8616 45.0999 51.158 47.0999C49.254 49.2999 46.1475 51.4999 41.6381 53.5999C37.8301 55.3999 32.6192 58.3999 28.5106 62.7999C26.9072 64.4999 25.5043 66.2999 24.3018 68.3999C24.903 69.1999 25.5043 69.9999 26.1055 70.7999C27.3081 68.3999 28.9114 66.3999 30.5148 64.4999L30.615 64.5999Z" fill="black"/>
<path d="M35.1244 54.7C36.828 53.7 38.4313 52.9 40.1349 52.1C44.1433 50.1 47.9512 48.3 50.1559 44.2C52.2603 40.2 50.7571 35.6 50.3563 34.5L48.3521 37.5C48.6527 39 48.6527 41.1 47.7508 42.9C46.9491 44.4 45.8468 45.7 44.2435 46.8C42.7403 47.9 40.9366 48.8 38.9324 49.7C37.2288 50.5 35.5252 51.3 33.7214 52.4C31.5168 53.7 29.3122 55.4 27.308 57.2C25.7047 58.7 24.2015 60.3 22.7986 62.1C22.2975 62.7 21.8967 63.3 21.4958 63.9C21.8967 64.7 22.3977 65.6 22.999 66.5C24.903 63.6 28.9114 58.4 35.1244 54.7Z" fill="black"/>
<path d="M29.8133 41.8999C33.1203 43.5999 38.9324 44.2999 41.9387 41.3999C47.5505 35.5999 41.5379 26.6999 33.9219 29.5999C35.8259 25.5999 39.6339 24.2999 44.1433 24.1999C48.753 24.1999 52.6612 26.2999 55.4671 29.9999C57.6717 32.9999 58.9744 36.5999 59.0746 40.2999C58.8742 53.4999 43.5421 56.4999 34.8238 63.9999C32.8196 65.3999 29.6129 69.4999 27.5085 72.6999C28.0096 73.1999 28.5106 73.7999 29.1119 74.2999C29.2121 74.3999 29.4125 74.4999 29.5127 74.6999C31.4167 71.1999 35.9261 65.0999 44.8448 60.6999C55.7677 55.4999 64.8868 46.6999 60.7782 34.4999C59.7761 31.6999 58.3731 29.0999 56.3689 26.8999C51.7593 21.3999 43.4419 19.4999 36.4272 23.3999C29.4125 27.2999 30.3144 34.6999 31.1161 36.8999C31.4167 35.1999 35.3249 29.3999 40.0347 32.9999C40.7362 33.5999 41.5379 34.5999 41.5379 36.1999C41.5379 39.0999 39.5337 40.8999 36.6276 40.7999C27.8091 40.9999 21.6963 31.3999 21.4959 23.3999L18.9907 20.8999C17.688 28.1999 22.8989 38.6999 29.9135 42.0999L29.8133 41.8999Z" fill="black"/>
</svg>
