<svg width="268" height="267" viewBox="0 0 268 267" fill="none" xmlns="http://www.w3.org/2000/svg">
<g filter="url(#filter0_d_99_2)">
<path d="M154.191 85.4045V85.9045H154.407C154.407 90.4383 150.769 94.0667 146.228 94.0667C141.687 94.0664 138.05 90.4382 138.05 85.9045V85.4045H154.191Z" fill="white" stroke="white"/>
<path d="M27.5718 37.8857C27.9882 41.3482 29.8076 46.7491 32.9917 52.751C36.0716 58.5564 40.4112 64.8905 45.9429 70.5332L46.4819 71.0771L46.4917 71.0869L46.5005 71.0967C48.8981 73.755 51.2978 75.6579 53.4761 77.2969L54.3071 76.4688V77.6738C54.3071 81.0306 54.868 84.395 55.438 87.8076L55.6157 88.875L54.688 88.3193C51.8152 86.5993 46.3778 82.8858 40.6567 77.1768L40.6548 77.1738C30.9061 67.3025 27.3772 57.4838 26.2964 50.1143C25.7565 46.433 25.828 43.3678 26.0356 41.2188C26.1395 40.1444 26.2774 39.298 26.3901 38.7178C26.4465 38.4276 26.4973 38.2035 26.5337 38.0508C26.5518 37.9747 26.5662 37.9162 26.5767 37.876C26.5819 37.8559 26.5864 37.84 26.5894 37.8291C26.5908 37.8238 26.5914 37.8195 26.5923 37.8164C26.5927 37.8149 26.593 37.8134 26.5933 37.8125L26.5942 37.8115C26.5969 37.8119 26.631 37.8208 27.0757 37.9453L26.5942 37.8105L27.5718 37.8857Z" fill="white" stroke="white"/>
<path d="M32.6929 8.96289C33.2578 16.5739 34.9524 23.9018 37.7769 30.9482L38.2095 32.001C40.2762 36.8967 42.9792 41.5653 46.1284 45.8174L46.8101 46.7217L46.812 46.7256L47.4478 47.5576C50.6215 51.6525 53.7479 54.7565 56.1284 56.8682L56.0767 56.9258L56.2974 56.959V58.3545L55.9927 58.084C55.3048 60.5646 54.8367 63.0436 54.5884 65.5215L54.5024 66.3789L53.8003 65.8789C51.7757 64.4358 46.0516 59.863 40.0464 52.1582V52.1572C32.1407 42.2572 30.0602 31.4281 29.9526 23.0889C29.8988 18.9185 30.3383 15.3657 30.7915 12.8535C31.0182 11.5972 31.2481 10.5998 31.4224 9.91504C31.5095 9.57261 31.5826 9.30781 31.6343 9.12793C31.66 9.03827 31.6806 8.96967 31.6948 8.92285C31.7019 8.89961 31.7076 8.88148 31.7114 8.86914C31.7133 8.86305 31.7143 8.85785 31.7153 8.85449C31.7159 8.85281 31.717 8.85156 31.7173 8.85059V8.84961C31.7174 8.84927 31.7174 8.84879 32.0767 8.96289L31.7173 8.84863L32.6929 8.96289Z" fill="white" stroke="white"/>
<path d="M56.9814 150.959L68.9258 152.094L69.1045 152.111L69.2314 152.238C74.3184 157.314 80.2598 161.832 86.4932 165.791L86.1729 166.711C76.6902 165.707 69.2907 162.122 64.2617 158.717C61.7472 157.014 59.8215 155.355 58.5215 154.08C57.8719 153.443 57.3756 152.899 57.0381 152.491C56.8701 152.288 56.7366 152.113 56.6426 151.973C56.5962 151.905 56.5535 151.836 56.5205 151.772C56.5041 151.74 56.4858 151.701 56.4707 151.659C56.4583 151.624 56.4346 151.549 56.4346 151.457V150.907L56.9814 150.959Z" fill="white" stroke="white"/>
<path d="M49.188 123.245C52.8597 130.832 57.6516 138.141 63.0073 144.61L62.3989 145.377C60.7687 144.564 54.3907 142.523 48.6323 137.066L48.0737 136.54C42.3889 131.083 39.2977 125.144 37.6245 120.518C36.7609 118.13 36.2742 116.089 36.0034 114.644C35.868 113.921 35.7866 113.345 35.7388 112.949C35.7149 112.751 35.6995 112.598 35.6899 112.493C35.6851 112.441 35.6814 112.4 35.6792 112.372C35.6781 112.358 35.6778 112.347 35.6772 112.34C35.677 112.336 35.6764 112.333 35.6763 112.331V112.327L35.6138 111.355L36.4399 111.871H36.4409C36.4417 111.872 36.4432 111.873 36.4448 111.874C36.4481 111.876 36.4531 111.879 36.4595 111.883C36.4724 111.891 36.4918 111.903 36.5171 111.919C36.568 111.951 36.6438 111.997 36.7407 112.058C36.9345 112.178 37.2153 112.354 37.564 112.571C38.2615 113.006 39.23 113.608 40.314 114.282C41.398 114.956 42.5972 115.701 43.7563 116.419L46.9585 118.396L47.1001 118.482L47.1616 118.636C47.4369 119.322 47.7819 120.014 48.1392 120.727C48.4928 121.432 48.8584 122.16 49.1519 122.893L49.188 122.982V123.245Z" fill="white" stroke="white"/>
<path d="M57.4346 100.6C58.2854 104.266 59.9782 110.16 63.0693 116.612L63.7686 117.982C67.3158 124.797 71.6094 131.115 76.6484 136.938C83.1542 143.993 90.7873 150.198 99.5469 154.992L100.229 155.365L99.6064 155.831C97.3464 157.522 95.3669 159.214 93.375 160.918L93.1025 161.152L92.7939 160.968C84.2231 155.836 76.5036 149.56 70.21 142.424L70.209 142.423C64.2128 135.584 59.0627 128.164 55.3408 119.879V119.878C53.9438 117.087 52.82 114.298 51.9688 111.774L49.8545 110.456C41.8335 106.038 34.5893 100.537 29.4424 93.9412L28.9512 93.2996C22.0484 84.1151 20.2487 74.7106 20.1768 67.6062C20.1408 64.055 20.5363 61.0761 20.9414 58.9832C21.1439 57.9368 21.3497 57.1111 21.5049 56.5447C21.5824 56.2617 21.6472 56.043 21.6934 55.8943C21.7164 55.8199 21.7353 55.7623 21.748 55.7234C21.7544 55.704 21.7592 55.6888 21.7627 55.6785C21.7644 55.6735 21.7656 55.6696 21.7666 55.6667C21.7671 55.6653 21.7673 55.6637 21.7676 55.6628L21.7686 55.6619C21.7724 55.6629 21.8128 55.6766 22.2412 55.824L21.7686 55.6609L22.7383 55.8796C22.6043 57.0835 22.7357 59.3673 23.3008 62.3279C23.8284 65.0923 24.728 68.4172 26.1162 71.9519L26.4014 72.6619L26.4023 72.6648L26.835 73.7126C29.0453 78.9151 31.998 83.6429 35.6982 88.1287L36.4463 88.9675C39.9698 92.8537 43.9418 96.3237 48.5557 99.5671C48.3722 98.497 48.2279 97.5574 48.1221 96.7917C47.9808 95.7699 47.9034 95.0262 47.9033 94.7019V93.4958L48.7568 94.3474C49.136 94.7258 49.5133 94.9629 49.918 95.1775L50.333 95.3894L50.3545 95.4001L50.374 95.4128L57.1992 99.6687L57.4346 99.8162V100.6Z" fill="white" stroke="white"/>
<path d="M30.939 127.687C33.5792 133.22 37.2103 138.261 41.6011 142.577L42.4897 143.43L42.5005 143.441C43.0679 144.007 43.6391 144.577 44.2065 145.143L44.2925 145.24C44.4781 145.473 44.556 145.75 44.5923 145.931C44.6138 146.039 44.6245 146.135 44.6304 146.207C48.0031 152.349 52.2095 157.372 57.5288 161.563H57.5278C63.996 166.614 71.884 169.993 81.2104 171.967L82.064 172.148L81.4761 172.792C80.0607 174.346 78.931 175.685 78.1577 176.667C77.7707 177.159 77.4768 177.556 77.2817 177.844C77.1835 177.989 77.1151 178.099 77.0737 178.174C77.0662 178.188 77.0609 178.2 77.0562 178.209V178.284L76.9722 178.41L76.4038 179.26L76.2085 179.553L75.8667 179.468C66.7102 177.184 58.6761 173.466 52.0669 168.018V168.017C45.7559 163.147 40.5956 156.851 36.8696 149.701L36.8687 149.7C31.998 140.265 30.5652 131.973 29.9927 127.974L30.939 127.687Z" fill="white" stroke="white"/>
<path d="M240.642 37.9453C241.123 37.8106 241.123 37.8111 241.123 37.8115V37.8125C241.123 37.8135 241.124 37.8149 241.124 37.8164C241.125 37.8195 241.126 37.8237 241.128 37.8291C241.131 37.84 241.134 37.8559 241.14 37.876C241.15 37.9162 241.165 37.9746 241.184 38.0508C241.22 38.2035 241.27 38.4276 241.326 38.7178C241.439 39.298 241.577 40.1443 241.681 41.2188C241.888 43.3678 241.96 46.433 241.42 50.1143C240.339 57.4837 236.811 67.3026 227.062 77.1738L227.06 77.1768C221.696 82.5288 216.583 86.1275 213.598 87.9736L213.029 88.3193L212.101 88.875L212.279 87.8076C212.849 84.395 213.41 81.0305 213.41 77.6738V76.4688L214.239 77.2969C216.418 75.6577 218.819 73.7555 221.217 71.0967L221.226 71.0869L221.235 71.0771C227.025 65.2998 231.546 58.7436 234.726 52.751C237.91 46.7492 239.728 41.3482 240.145 37.8857L241.123 37.8105L240.642 37.9453Z" fill="white" stroke="white"/>
<path d="M235.522 9C235.998 8.8487 235.998 8.84923 235.999 8.84961V8.85059C235.999 8.85154 235.999 8.85289 236 8.85449C236.001 8.85786 236.002 8.86297 236.004 8.86914C236.008 8.88147 236.014 8.89965 236.021 8.92285C236.035 8.96968 236.056 9.03828 236.082 9.12793C236.133 9.30781 236.206 9.57261 236.293 9.91504C236.468 10.5998 236.698 11.5972 236.924 12.8535C237.378 15.3657 237.817 18.9185 237.763 23.0889C237.659 31.1688 235.703 41.5864 228.39 51.2314L227.666 52.1621C223.753 57.0598 221.063 60.2791 219.197 62.373C217.344 64.452 216.271 65.4595 215.602 65.8916C215.274 66.1036 214.949 66.2408 214.627 66.1973C214.281 66.1503 214.091 65.9132 214.012 65.8164C213.986 65.8317 213.953 65.8512 213.915 65.8789L213.213 66.3789L213.127 65.5215C212.879 63.0437 212.411 60.5646 211.723 58.084L211.418 58.3545V56.959L211.639 56.9258L211.586 56.8682C214.126 54.6158 217.514 51.2345 220.903 46.7256L220.906 46.7217L221.587 45.8174C224.961 41.2617 227.823 36.2272 229.939 30.9482L230.456 29.624C232.971 22.9849 234.493 16.0982 235.023 8.96289L235.999 8.84863L235.522 9Z" fill="white" stroke="white"/>
<path d="M232.04 112.327L232.039 112.328V112.34C232.039 112.347 232.037 112.358 232.036 112.372C232.034 112.4 232.031 112.441 232.026 112.493C232.017 112.598 232 112.751 231.977 112.949C231.929 113.345 231.847 113.921 231.712 114.644C231.441 116.089 230.954 118.13 230.091 120.518C228.364 125.293 225.126 131.468 219.084 137.066C213.685 142.183 207.742 144.295 205.677 145.209L205.317 145.377L204.709 144.61C210.065 138.141 214.857 130.832 218.528 123.245V122.982L218.564 122.893C218.858 122.161 219.223 121.432 219.576 120.727C219.933 120.013 220.279 119.322 220.555 118.636L220.616 118.482L220.757 118.396L223.959 116.419C225.118 115.701 226.318 114.956 227.402 114.282C228.486 113.608 229.455 113.006 230.152 112.571C230.501 112.354 230.782 112.178 230.976 112.058C231.072 111.997 231.147 111.951 231.198 111.919C231.223 111.903 231.243 111.891 231.256 111.883C231.262 111.879 231.268 111.876 231.271 111.874C231.273 111.873 231.274 111.872 231.274 111.871H231.276L232.102 111.355L232.04 112.327Z" fill="white" stroke="white"/>
<path d="M246.26 55.824V56.0291C246.272 56.0664 246.288 56.116 246.307 56.1775C246.353 56.3262 246.418 56.5447 246.496 56.8279C246.651 57.3944 246.856 58.2206 247.059 59.2673C247.464 61.3603 247.859 64.3383 247.823 67.8894C247.754 74.7719 246.063 83.8129 239.682 92.7214L239.05 93.5828C233.872 100.472 226.411 105.905 218.144 110.741L218.143 110.74L216.03 112.057C215.178 114.583 214.054 117.375 212.655 120.169L212.656 120.17C210.658 124.442 208.368 128.728 205.5 132.735L204.611 132.312L204.758 131.738C205.444 128.85 205.447 125.717 205.447 122.511C205.447 121.539 205.377 120.564 205.306 119.531C205.235 118.503 205.162 117.423 205.162 116.268V116.165L205.204 116.069C208.024 109.597 209.716 104.255 210.565 100.601V99.8162L210.801 99.6687L217.591 95.4343C217.701 95.3371 217.83 95.2549 217.944 95.1882C218.079 95.1094 218.248 95.0195 218.395 94.9382C218.71 94.7632 219.013 94.5783 219.244 94.3474L220.097 93.4958V94.7019C220.097 95.4928 219.872 97.1438 219.438 99.616C224.372 96.3528 228.582 92.3711 232.302 88.1287C236.249 83.3434 239.347 78.2833 241.599 72.6648L241.6 72.6619L241.883 71.9529C244.734 64.6526 245.26 58.2469 245.26 55.824H246.26Z" fill="white" stroke="white"/>
<path d="M193.635 67.6213C194.213 69.9289 195.649 76.5285 194.212 85.4163L194.057 86.3801L193.366 85.6907C193.03 85.3558 192.787 84.9452 192.58 84.6008C192.403 84.3072 192.248 84.0579 192.074 83.8499H191.753L191.604 83.637C189.759 81.0062 187.666 78.6231 185.328 76.4866L184.856 76.0627L184.458 75.7092L184.834 75.3342L192.797 67.3889L193.421 66.7659L193.635 67.6213Z" fill="white" stroke="white"/>
<path d="M62.6919 55.7534L68.6636 61.7124L68.8726 61.9204L68.7915 62.2036C68.2227 64.1902 67.6645 66.1411 67.3853 68.6489V68.6567L67.3833 68.6636C66.5921 74.1905 66.7892 79.9694 67.978 85.7681L68.229 86.9282L68.231 86.9341L68.394 87.6733C70.1361 95.327 73.4618 103.261 78.1274 111.478H78.1284C83.4884 120.768 90.2528 127.517 98.4272 132.582L99.0913 132.973C105.999 136.973 114.243 139.661 123.834 141.029L125.422 141.255L123.987 141.971C122.276 142.825 120.495 143.679 118.648 144.565C116.799 145.452 114.883 146.373 112.896 147.364L112.731 147.446L112.552 147.401C105.677 145.686 99.6597 143.112 93.9321 139.683L93.9243 139.678C89.6915 137.038 85.7005 133.907 82.1763 130.286V130.527L81.3228 129.675C77.3067 125.668 73.8688 121.091 70.7222 115.667V115.667C65.296 106.546 61.5754 97.1294 59.8569 88.269V88.2681C58.4257 81.1248 58.1386 73.9772 58.9985 67.1118L59.0015 67.0942L59.0044 67.0757L59.3247 65.4956C60.0754 61.8422 60.8616 58.4486 61.8745 55.9214L62.1558 55.2183L62.6919 55.7534Z" fill="white" stroke="white"/>
<path d="M205.843 55.3538C206.993 58.2243 208.144 61.9548 208.719 66.5442L208.866 67.8352C209.538 74.3047 209.202 81.0062 207.859 87.7043L207.857 87.7151C206.716 92.8397 205.286 97.9837 202.992 103.134L202.469 104.309L202.061 103.089C200.931 99.7077 199.518 96.3241 197.822 92.9387L197.719 92.7307L197.811 92.5168C198.219 91.5655 198.495 90.5361 198.742 89.4788C198.983 88.4467 199.202 87.3639 199.486 86.3635C200.612 79.8932 200.893 73.9935 200.333 68.0989C199.758 65.5107 199.489 63.5992 198.927 61.636L198.846 61.3528L199.054 61.1448L205.025 55.1858L205.562 54.6506L205.843 55.3538Z" fill="white" stroke="white"/>
<path d="M237.728 128.223C237.438 132.263 235.713 140.844 230.845 149.989C227.119 157.138 221.959 163.432 215.648 168.301L215.649 168.302C209.04 173.75 201.006 177.468 191.85 179.752L191.505 178.82C191.706 178.72 191.865 178.566 192.086 178.345C192.281 178.151 192.532 177.897 192.871 177.714C198.498 173.216 201.86 169.015 203.528 166.24L203.604 166.115L203.733 166.049C205.98 164.928 208.219 163.531 210.172 161.861L210.188 161.847C215.535 157.634 219.758 152.58 223.14 146.393L223.175 146.33L223.226 146.279C223.261 146.243 223.307 146.15 223.337 146.002C223.35 145.938 223.357 145.879 223.36 145.836C223.362 145.815 223.362 145.798 223.362 145.789C223.362 145.786 223.363 145.783 223.363 145.782V145.574L223.51 145.427C224.078 144.86 224.647 144.293 225.216 143.725L225.227 143.714C230.017 139.215 233.961 133.873 236.777 127.971L237.728 128.223Z" fill="white" stroke="white"/>
<path d="M210.865 179.903C209.998 182.21 207.423 188.49 203.139 196.754L203.133 196.764C198.271 205.898 189.683 219.616 177.639 231.348L177.634 231.352C166.054 242.48 155.888 249.342 148.49 253.428C144.791 255.47 141.783 256.82 139.635 257.661C138.562 258.082 137.699 258.376 137.07 258.568C136.756 258.663 136.494 258.735 136.29 258.783C136.169 258.812 136.011 258.848 135.86 258.865C135.826 258.872 135.782 258.883 135.733 258.893C135.612 258.918 135.441 258.951 135.262 258.973C135.102 258.993 134.859 259.015 134.624 258.986C134.538 258.975 134.388 258.949 134.224 258.874H133.432C133.242 258.874 133.011 258.822 132.849 258.783C132.644 258.735 132.383 258.663 132.069 258.568C131.44 258.376 130.578 258.082 129.504 257.661C127.356 256.82 124.348 255.47 120.65 253.428C113.252 249.342 103.085 242.48 91.5044 231.352V231.351C79.463 219.905 70.875 206.193 66.0083 196.769L65.2749 195.392C61.69 188.579 59.3669 182.892 58.5464 180.436L57.814 178.243L59.9126 179.21C63.3887 180.811 66.7949 182.378 70.4165 183.483L71.144 183.698L71.5669 183.818L71.7642 184.211C72.9002 186.479 74.3188 189.312 75.7388 192.146L76.1724 192.975C80.7512 201.648 88.5011 213.599 99.1509 223.954L100.18 224.946C110.083 234.4 118.76 240.188 124.529 243.57L125.68 244.235L125.69 244.24L125.699 244.245C129.633 246.601 132.814 247.963 134.544 248.574C136.103 247.941 139.297 246.57 143.458 244.235L144.61 243.57C150.577 240.071 159.658 233.999 169.988 223.954L169.994 223.949L170.65 223.315C184.351 209.939 192.902 193.692 197.361 183.959L197.627 183.375H198.378C202.287 181.98 205.876 180.593 209.456 178.67L211.802 177.409L210.865 179.903Z" fill="#BC9B5F" stroke="#BC9B5F" stroke-width="2"/>
<path d="M133.432 24.7422C142.87 24.7422 152.04 25.5978 160.935 27.6006H160.936C167.404 28.9453 173.856 31.0433 180.051 33.4141L181.286 33.8916L181.294 33.8945L181.301 33.8975C186.899 36.1895 191.282 38.5545 194.27 40.3506C195.764 41.2487 196.91 42.005 197.686 42.5391C198.073 42.8061 198.368 43.018 198.568 43.1641C198.668 43.2371 198.745 43.294 198.797 43.333C198.823 43.3524 198.843 43.3674 198.856 43.3779C198.863 43.3832 198.869 43.3876 198.873 43.3906C198.875 43.3918 198.876 43.3928 198.877 43.3936L198.879 43.3955C198.878 43.3975 198.859 43.4228 198.597 43.7627L198.88 43.3955L198.931 43.4346L199.544 44.0479L199.632 44.1348L199.695 44.2402L203.107 49.916L204.019 51.4307H202.379L196.984 56.8145L196.093 57.7041L195.429 56.6338L191.844 50.8555C189.976 49.5977 184.994 46.0957 176.854 42.8467L176.844 42.8418L176.832 42.8369C170.92 40.3087 164.725 38.3414 158.244 36.9355V36.9346C150.069 35.2475 141.609 34.4043 133.147 34.4043C124.685 34.4043 116.225 35.2484 108.05 36.9355L106.838 37.2061C101.199 38.4976 95.7778 40.2183 90.5742 42.3691L89.4619 42.8369C81.8942 46.0734 76.6662 49.3084 74.7773 50.5479L72.0557 56.2529L71.4473 57.5283L70.4473 56.5303L64.4756 50.5713L63.9639 50.0615L64.2871 49.415L66.8467 44.3076L66.9658 44.0703L67.1875 43.9229L68.04 43.3555L68.292 43.1875H68.3369C68.3594 43.1728 68.3851 43.1572 68.4131 43.1387C68.6207 43.0009 68.908 42.8036 69.3047 42.5352C70.0855 42.0068 71.2193 41.2516 72.6953 40.3535C75.647 38.5575 79.9603 36.191 85.5625 33.8975H85.5635L86.751 33.4189C92.7171 31.0459 99.1842 28.9485 105.915 27.6035C114.814 25.5986 123.988 24.7422 133.432 24.7422Z" fill="#BC9B5F" stroke="#BC9B5F" stroke-width="2"/>
<path d="M215.798 149.651C214.023 154.226 209.547 157.491 205.466 159.598C203.413 160.658 201.434 161.439 199.895 161.956C199.125 162.214 198.462 162.407 197.951 162.537C197.696 162.601 197.476 162.651 197.298 162.685C197.235 162.697 197.172 162.706 197.112 162.714C195.374 165.007 192.533 168.374 187.794 172.547L187.792 172.549C178.642 180.538 168.924 185.671 159.829 190.493L159.824 190.495C152.15 194.466 145.357 198.138 138.284 203.502L138.278 203.507C127.521 211.417 120.158 219.893 115.622 225.551L115.604 225.574L115.585 225.593C114.764 226.413 113.932 227.518 113.373 228.355L113.035 228.861L112.604 228.431C110.913 226.745 108.938 225.055 106.944 223.349L106.607 223.06L106.854 222.691C107.155 222.239 107.529 221.792 107.881 221.372C108.24 220.941 108.578 220.537 108.845 220.137L108.857 220.118L108.872 220.1C113.72 214.124 121.711 205.009 133.415 196.178L133.422 196.173L134.816 195.171C140.875 190.886 147.095 187.321 153.159 184.021L155.945 182.515C165.062 177.398 173.821 172.886 182.302 165.551L182.303 165.55L182.873 165.052C185.673 162.573 187.673 160.307 188.989 158.632C189.691 157.739 190.2 157.014 190.53 156.515C190.696 156.265 190.816 156.071 190.896 155.942C190.935 155.877 190.965 155.828 190.983 155.796C190.993 155.781 191 155.769 191.004 155.761L191.009 155.751L191.944 154.092V156.052C191.958 156.052 191.971 156.052 191.985 156.051C192.343 156.038 192.869 156.01 193.536 155.956C194.872 155.846 196.773 155.626 199.027 155.187C203.539 154.308 209.448 152.551 215.067 149.046L216.341 148.251L215.798 149.651Z" fill="white" stroke="white"/>
<path d="M185.806 184.181C177.77 191.37 168.64 201.816 164.528 207.037L164.818 207.326L164.533 207.677C160.859 212.189 157.748 216.985 154.918 222.351L154.917 222.354C152.649 226.597 150.95 230.269 149.821 233.087L149.765 233.227L149.641 233.312C145.953 235.86 143.107 237.566 140.547 238.986C140.363 239.154 140.131 239.305 139.912 239.414C139.683 239.528 139.383 239.645 139.12 239.645H138.451L138.64 239.003C140.068 234.159 143.207 225.329 146.923 218.197L146.926 218.191L147.507 217.133C159.807 195.148 178.022 188.622 185.178 183.403L185.806 184.181Z" fill="white" stroke="white"/>
<path d="M144.377 206.492L143.954 206.226L144.376 206.492L144.375 206.494C144.375 206.495 144.373 206.498 144.372 206.501C144.368 206.507 144.361 206.517 144.353 206.53C144.337 206.556 144.313 206.596 144.281 206.647C144.217 206.751 144.122 206.905 143.998 207.108C143.749 207.514 143.385 208.116 142.921 208.894C141.995 210.451 140.673 212.717 139.093 215.551C135.934 221.217 131.747 229.151 127.63 238.217L127.387 238.752L126.898 238.426C126.049 237.861 125.057 237.225 123.954 236.514C122.888 235.828 121.722 235.073 120.486 234.253H119.415L119.934 233.475L121.004 231.895C132.064 215.784 143.066 206.406 143.6 205.873L144.377 206.492Z" fill="white" stroke="white"/>
<path d="M171.323 94.9146C172.871 96.46 175.355 98.5762 177.424 102.743C179.493 106.908 181.138 113.09 181.138 122.794C181.138 132.553 178.328 140.757 172.062 148.161C165.81 155.546 156.14 162.11 142.463 168.65C127.424 176.013 115.827 183.925 107.924 192.656L107.572 193.045L107.302 192.776C102.874 198.039 98.5006 203.558 95.2036 210.138L94.8423 210.86L94.3569 210.215L89.2388 203.404L89.0405 203.141L89.2046 202.855C92.6396 196.856 96.6452 191.717 101.216 186.871L102.325 185.706C113.862 173.788 128.127 165.614 138.622 160.653L138.624 160.651L139.809 160.093C151.539 154.506 159.756 148.697 164.962 142.911L165.472 142.332C170.227 136.748 172.46 131.188 172.46 122.794C172.46 114.365 170.491 108.779 168.55 105.458L168.234 104.945C167.501 103.78 166.804 102.845 166.288 102.073L166.105 101.798L166.286 101.521L170.551 94.9946L170.887 94.48L171.323 94.9146Z" fill="white" stroke="white"/>
<path d="M164.046 106.733C164.622 108.315 165.988 112.404 166.455 117.536C166.922 122.667 166.495 128.874 163.449 134.664L163.447 134.668C157.103 146.466 146.137 151.637 134.793 157.297L134.782 157.302C129.955 159.568 125.42 161.832 120.604 164.659C103.065 175.105 91.7406 189.791 86.3594 197.987L85.9453 198.619L85.5254 197.991C84.0203 195.738 82.7363 193.487 81.6719 191.428L81.2285 190.559L81.0986 190.299L81.2598 190.057C82.3957 188.357 83.5478 186.632 84.9893 184.906C88.9859 179.78 93.2662 175.225 97.8281 170.957L97.835 170.95L98.9121 169.993C103.965 165.543 109.433 161.346 114.936 157.978L116.115 157.269C121.258 154.134 126.114 151.854 130.944 149.586L130.952 149.582L133.054 148.625C137.89 146.388 142.24 144.108 145.934 141.405L145.939 141.401L145.946 141.396C150.427 138.322 153.502 134.694 155.741 130.506C158.229 125.531 158.237 119.699 157.398 115.515L157.357 115.312L157.473 115.139L163.16 106.627L163.708 105.806L164.046 106.733Z" fill="white" stroke="white"/>
<path d="M74.9194 67.9558L82.0288 75.0496L82.1704 75.1912L82.1753 75.3914C82.4569 86.6314 86.8965 99.0143 94.3677 108.51C101.836 118.001 112.293 124.56 124.605 124.281H124.62L124.633 124.282C128.649 124.42 131.997 123.245 134.336 121.08C136.673 118.917 138.05 115.723 138.05 111.727C138.05 107.393 135.894 104.685 133.976 103.04C130.72 100.553 127.639 99.7131 124.842 99.8865C122.034 100.061 119.461 101.26 117.24 102.939C115.019 104.619 113.172 106.764 111.828 108.789C110.476 110.826 109.664 112.692 109.468 113.801L109.144 115.635L108.505 113.885C107.339 110.684 106.12 103.777 107.705 96.2644C109.294 88.7292 113.708 80.5799 123.804 74.9666L124.75 74.4548C144.668 63.9536 167.996 69.4738 181.021 85.0144H181.02C186.576 91.1174 190.511 98.2846 193.35 105.987L193.622 106.735L193.625 106.744L193.893 107.561C199.396 124.691 195.776 139.481 186.946 151.818C177.991 164.329 163.689 174.307 148.15 181.705C122.953 194.137 110.227 211.363 104.865 221.22L104.408 222.062L103.979 221.206C103.882 221.011 103.728 220.851 103.538 220.692C103.44 220.611 103.346 220.541 103.241 220.46C103.154 220.393 103.057 220.315 102.968 220.231L102.648 219.959C101.057 218.577 99.6751 216.947 98.3853 215.66L98.0962 215.373L98.3208 215.032C101.316 210.478 105.094 205.284 108.838 200.729C112.564 196.198 116.287 192.257 119.188 190.223C125.408 184.876 132.795 180.339 140.358 175.965C147.941 171.579 155.691 167.364 162.692 162.641C176.682 153.205 187.535 141.84 187.816 123.354C187.53 112.973 183.873 102.865 177.68 94.4353L177.309 93.9519C169.464 83.8696 158.659 78.1761 145.953 78.1736C133.665 78.4466 123.39 81.8709 117.944 92.1121C139.454 85.0497 156.078 110.263 140.047 126.832L140.036 126.844C135.639 131.085 129.23 132.66 122.797 132.589C116.941 132.523 110.996 131.092 106.384 128.992L106.669 129.562L105.345 128.921C95.2648 124.035 86.5235 114.075 80.7681 102.767C75.0133 91.4602 72.2003 78.7193 74.0737 68.2214L74.2417 67.2791L74.9194 67.9558Z" fill="white" stroke="white"/>
</g>
<defs>
<filter id="filter0_d_99_2" x="19.6748" y="8.69727" width="231.651" height="254.302" filterUnits="userSpaceOnUse" color-interpolation-filters="sRGB">
<feFlood flood-opacity="0" result="BackgroundImageFix"/>
<feColorMatrix in="SourceAlpha" type="matrix" values="0 0 0 0 0 0 0 0 0 0 0 0 0 0 0 0 0 0 127 0" result="hardAlpha"/>
<feOffset dx="2" dy="2"/>
<feGaussianBlur stdDeviation="0.5"/>
<feComposite in2="hardAlpha" operator="out"/>
<feColorMatrix type="matrix" values="0 0 0 0 0 0 0 0 0 0 0 0 0 0 0 0 0 0 0.25 0"/>
<feBlend mode="normal" in2="BackgroundImageFix" result="effect1_dropShadow_99_2"/>
<feBlend mode="normal" in="SourceGraphic" in2="effect1_dropShadow_99_2" result="shape"/>
</filter>
</defs>
</svg>
