<svg width="502" height="89" viewBox="0 0 502 89" fill="none" xmlns="http://www.w3.org/2000/svg">
<path d="M106.674 7.84438H138.04L141.547 17.5444C140.244 14.8444 138.441 12.7444 135.835 11.1444C133.33 9.54439 130.624 8.74438 127.618 8.74438H123.008C121.706 8.74438 120.603 9.14439 119.701 10.0444C118.799 10.9444 118.298 11.9444 118.298 13.2444V26.5444H127.518C129.121 26.5444 130.524 26.0444 131.727 25.0444C132.929 24.0444 133.631 22.7444 133.931 21.1444V32.8444C133.731 31.3444 132.929 30.0444 131.727 28.9444C130.524 27.9444 129.121 27.4444 127.518 27.4444H118.298V45.0444C118.298 46.4444 118.699 47.6444 119.601 48.5444C120.503 49.6444 121.505 50.2444 122.808 50.5444H106.674C107.977 50.2444 109.079 49.6444 109.881 48.5444C110.682 47.5444 111.083 46.3444 111.083 45.0444V13.2444C111.083 11.9444 110.682 10.7444 109.781 9.74438C108.979 8.64438 107.877 8.04438 106.674 7.74438V7.84438Z" fill="white"/>
<path d="M160.888 49.7442C163.894 49.7442 166.6 48.9442 169.105 47.3442C171.61 45.7442 173.514 43.6442 174.817 40.9442L171.309 50.6442H140.846C142.148 50.4442 143.151 49.7442 144.052 48.6442C144.954 47.5442 145.355 46.4442 145.355 45.1442V13.3442C145.355 12.0442 144.954 10.8442 144.052 9.84424C143.251 8.84424 142.148 8.14424 140.846 7.84424H156.979C155.677 8.04424 154.574 8.74424 153.773 9.74424C152.971 10.7442 152.47 11.9442 152.47 13.3442V45.2442C152.47 46.5442 152.971 47.5442 153.873 48.4442C154.775 49.3442 155.877 49.7442 157.18 49.7442H160.888Z" fill="white"/>
<path d="M190.85 8.84438C189.548 8.84438 188.546 9.24439 187.644 10.1444C186.742 11.0444 186.341 12.0444 186.341 13.3444V26.6444H195.56C197.063 26.6444 198.466 26.1444 199.669 25.1444C200.871 24.1444 201.573 22.8444 201.874 21.2444V32.9444C201.573 31.4444 200.871 30.1444 199.669 29.0444C198.466 28.0444 197.063 27.5444 195.56 27.5444H186.341V45.2444C186.341 46.4444 186.742 47.5444 187.644 48.3444C188.546 49.2444 189.648 49.6444 190.85 49.6444H195.661C198.567 49.6444 201.372 48.8444 203.878 47.2444C206.383 45.6444 208.287 43.5444 209.59 40.8444L206.082 50.5444H174.616C175.919 50.2444 177.021 49.6444 177.823 48.5444C178.625 47.5444 179.126 46.3444 179.126 45.0444V13.2444C179.126 11.9444 178.725 10.7444 177.923 9.74438C177.021 8.64438 175.919 8.04438 174.717 7.74438H206.183L209.69 17.4444C208.387 14.7444 206.483 12.6444 203.978 11.0444C201.473 9.44439 198.767 8.64439 195.761 8.64439H191.051L190.85 8.84438Z" fill="white"/>
<path d="M242.96 45.9444C244.463 48.5444 246.667 50.1444 249.573 50.7444H232.738C233.44 50.5444 234.041 50.2444 234.542 49.6444C235.043 49.0444 235.243 48.4444 235.243 47.7444C235.243 47.0444 235.043 46.6444 234.742 46.1444L226.425 31.5444L216.705 46.2444C216.204 47.1444 216.204 48.0444 216.705 48.9444C217.105 49.8444 217.907 50.4444 218.809 50.6444H209.289C211.794 50.1444 213.999 48.5444 215.803 45.6444L224.02 33.4444C225.323 31.5444 225.323 29.5444 224.12 27.4444L215.702 12.7444C214.199 10.0444 211.894 8.34438 208.888 7.74438H225.723C225.022 7.94438 224.421 8.24438 224.02 8.84438C223.619 9.44438 223.419 10.0444 223.419 10.7444C223.419 11.4444 223.519 11.7444 223.819 12.2444L231.435 25.6444L239.051 12.3444C239.252 11.9444 239.452 11.4444 239.452 10.9444C239.452 10.1444 239.252 9.44438 238.751 8.94438C238.25 8.34438 237.648 7.94438 236.947 7.84438H246.367C243.661 8.44438 241.657 10.0444 240.053 12.7444L233.64 23.6444C233.139 24.5444 232.939 25.6444 232.939 26.8444C232.939 28.0444 233.239 29.0444 233.74 29.9444L242.96 45.9444Z" fill="white"/>
<path d="M287.954 29.1442H310.801C310.801 30.9442 310.801 32.4442 310.701 33.9442C310.701 35.3442 310.401 36.9442 310.1 38.5442C309.799 40.1442 309.399 41.6442 308.797 42.8442C308.296 44.0442 307.595 45.3442 306.693 46.5442C305.791 47.7442 304.689 48.7442 303.486 49.5442C302.284 50.3442 300.78 50.9442 298.876 51.4442C297.073 51.9442 295.069 52.1442 292.864 52.1442C290.659 52.1442 286.952 51.6442 284.346 50.6442C281.741 49.6442 279.636 48.2442 277.933 46.5442C276.229 44.8442 274.826 42.8442 273.624 40.6442C272.421 38.4442 271.72 36.1442 271.519 33.6442C271.219 31.2442 271.219 28.7442 271.519 26.3442C271.72 23.9442 272.421 21.5442 273.523 19.3442C274.626 17.1442 276.029 15.1442 277.632 13.4442C279.235 11.7442 281.34 10.3442 283.845 9.34424C286.35 8.34424 289.156 7.84424 292.162 7.84424H304.889L308.396 17.8442C307.094 15.1442 305.29 12.9442 302.684 11.3442C300.179 9.74424 297.474 8.94424 294.467 8.94424H293.365C290.459 8.94424 287.954 9.94424 285.749 12.0442C283.544 14.0442 282.041 16.6442 281.039 19.6442C280.037 22.7442 279.536 26.0442 279.436 29.6442C279.436 33.2442 279.837 36.5442 280.738 39.7442C281.64 42.8442 283.144 45.4442 285.248 47.6442C287.352 49.7442 289.858 50.9442 292.864 51.1442C298.175 51.1442 301.783 49.3442 303.887 45.7442C305.49 42.9442 305.791 39.9442 304.588 36.7442C303.486 33.7442 301.582 31.7442 298.776 30.8442C297.774 30.5442 296.672 30.3442 295.57 30.3442H287.954V29.3442V29.1442Z" fill="white"/>
<path d="M330.443 49.7442C333.449 49.7442 336.155 48.9442 338.66 47.3442C341.165 45.7442 343.069 43.6442 344.372 40.9442L340.864 50.6442H310.401C311.703 50.4442 312.705 49.7442 313.607 48.6442C314.509 47.5442 314.91 46.4442 314.91 45.1442V13.3442C314.91 12.0442 314.509 10.8442 313.607 9.84424C312.806 8.84424 311.703 8.14424 310.401 7.84424H326.534C325.232 8.04424 324.129 8.74424 323.328 9.74424C322.526 10.7442 322.025 11.9442 322.025 13.3442V45.2442C322.025 46.5442 322.526 47.5442 323.428 48.4442C324.33 49.3442 325.432 49.7442 326.735 49.7442H330.443Z" fill="white"/>
<path d="M367.921 6.44434C372.13 6.44434 375.938 7.44434 379.546 9.54434C383.053 11.5443 385.859 14.3443 387.963 17.8443C390.068 21.3443 391.07 25.1443 391.07 29.3443C391.07 33.5443 390.068 37.3443 387.963 40.8443C385.859 44.3443 383.053 47.1443 379.546 49.2443C376.038 51.3443 372.13 52.3443 367.921 52.3443C363.712 52.3443 359.804 51.3443 356.297 49.2443C352.689 47.1443 349.883 44.3443 347.879 40.8443C345.775 37.3443 344.773 33.4443 344.773 29.3443C344.773 25.2443 345.775 21.4443 347.879 17.8443C349.984 14.3443 352.789 11.5443 356.297 9.54434C359.904 7.54434 363.712 6.44434 367.921 6.44434ZM367.921 51.3443C377.441 51.3443 382.151 44.0443 382.151 29.4443C382.151 14.8443 377.441 7.34434 367.921 7.34434C358.401 7.34434 353.491 14.6443 353.491 29.3443C353.491 44.0443 358.301 51.3443 367.921 51.3443Z" fill="white"/>
<path d="M411.312 26.8443C413.416 26.8443 415.32 26.8443 417.024 27.2443C418.828 27.5443 420.431 28.1443 421.934 29.0443C423.437 29.9443 424.64 31.1443 425.442 32.7443C426.344 34.3443 426.744 36.3443 426.744 38.6443C426.744 42.0443 425.442 44.9443 422.936 47.2443C420.431 49.5443 417.124 50.7443 413.116 50.7443H390.569C391.871 50.4443 392.974 49.8443 393.775 48.7443C394.577 47.7443 395.078 46.5443 395.078 45.2443V13.4443C395.078 12.1443 394.677 10.9443 393.775 9.94434C392.974 8.94434 391.871 8.24434 390.569 7.94434H411.412C414.719 7.94434 417.325 8.64434 419.429 10.1443C421.533 11.6443 422.536 13.8443 422.536 16.9443C422.536 20.0443 422.335 19.2443 421.934 20.2443C421.533 21.2443 421.032 22.0443 420.531 22.6443C420.03 23.2443 419.229 23.8443 418.327 24.3443C417.325 24.8443 416.523 25.2443 415.922 25.4443C415.32 25.6443 414.419 25.9443 413.416 26.2443C412.414 26.5443 411.713 26.7443 411.412 26.8443H411.312ZM407.604 8.84434C406.101 8.84434 404.899 9.24434 403.796 10.1443C402.794 11.0443 402.193 12.0443 402.193 13.3443V27.5443C402.794 27.5443 403.395 27.3443 403.997 27.2443C404.598 27.1443 405.5 26.9443 406.602 26.7443C407.704 26.4443 408.707 26.1443 409.608 25.6443C410.51 25.1443 411.412 24.5443 412.314 23.9443C413.216 23.2443 413.917 22.4443 414.419 21.3443C414.92 20.2443 415.22 19.1443 415.22 17.8443C415.22 15.2443 414.619 13.1443 413.416 11.4443C412.214 9.74434 410.41 8.94434 408.105 8.94434H407.504L407.604 8.84434ZM408.306 49.7443C411.412 49.7443 414.018 48.6443 416.222 46.4443C418.427 44.2443 419.429 41.6443 419.429 38.5443C419.429 35.4443 419.128 35.8443 418.527 34.6443C417.926 33.4443 417.224 32.5443 416.423 31.7443C415.621 30.9443 414.619 30.3443 413.416 29.7443C412.214 29.1443 411.112 28.7443 410.009 28.4443C408.907 28.1443 407.805 27.9443 406.602 27.7443C405.4 27.5443 404.498 27.4443 403.897 27.4443C403.295 27.4443 402.694 27.4443 402.193 27.4443V45.1443C402.193 46.4443 402.694 47.5443 403.696 48.3443C404.698 49.1443 406.001 49.6443 407.704 49.6443H408.306V49.7443Z" fill="white"/>
<path d="M466.828 50.6444H450.694C451.897 50.3444 452.699 49.7444 453.2 48.6444C453.701 47.6444 453.701 46.4444 453.2 45.1444L451.095 39.0444H434.16L432.055 45.1444C431.655 46.4444 431.655 47.6444 432.055 48.6444C432.557 49.6444 433.358 50.3444 434.561 50.6444H424.84C426.243 50.3444 427.546 49.7444 428.749 48.6444C429.951 47.6444 430.753 46.4444 431.154 45.1444L442.177 13.4444C441.776 11.9444 440.874 10.8444 439.772 9.74438C438.569 8.74438 437.266 8.04438 435.863 7.74438H451.997C450.795 8.04438 449.893 8.64438 449.492 9.74438C448.991 10.7444 448.991 11.9444 449.492 13.2444L460.515 45.0444C461.016 46.3444 461.818 47.5444 463.02 48.5444C464.223 49.5444 465.526 50.2444 466.928 50.5444L466.828 50.6444ZM434.46 38.2444H450.694L442.577 14.7444L434.46 38.2444Z" fill="white"/>
<path d="M487.171 49.7442C490.177 49.7442 492.883 48.9442 495.388 47.3442C497.893 45.7442 499.797 43.6442 501.1 40.9442L497.593 50.6442H467.129C468.432 50.4442 469.434 49.7442 470.336 48.6442C471.237 47.5442 471.638 46.4442 471.638 45.1442V13.3442C471.638 12.0442 471.237 10.8442 470.336 9.84424C469.534 8.84424 468.432 8.14424 467.129 7.84424H483.263C481.96 8.04424 480.858 8.74424 480.056 9.74424C479.254 10.7442 478.753 11.9442 478.753 13.3442V45.2442C478.753 46.5442 479.254 47.5442 480.156 48.4442C481.058 49.3442 482.16 49.7442 483.463 49.7442H487.171Z" fill="white"/>
<path d="M195.961 82.8442V72.5442H198.166V82.8442H195.961Z" fill="#BC9B5F"/>
<path d="M216.404 82.8442V72.5442H218.809L221.514 76.6442C221.715 76.9442 222.015 77.3442 222.316 77.8442C222.617 78.2442 222.817 78.6442 223.018 78.9442L223.318 79.3442V72.6442H225.523V82.9442H223.118L220.512 79.0442C220.212 78.6442 219.911 78.1442 219.61 77.6442C219.31 77.1442 219.009 76.7442 218.809 76.4442L218.508 76.0442V82.8442H216.303H216.404Z" fill="#BC9B5F"/>
<path d="M243.26 81.5443L244.062 79.8443C245.164 80.6443 246.266 80.9443 247.469 80.9443C248.671 80.9443 248.471 80.8443 248.872 80.5443C249.273 80.3443 249.473 80.0443 249.473 79.6443C249.473 79.2443 249.273 79.0443 248.972 78.8443C248.671 78.6443 248.17 78.5443 247.569 78.3443C247.168 78.2443 246.767 78.1443 246.366 78.0443C246.066 78.0443 245.665 77.8443 245.364 77.6443C245.064 77.4443 244.663 77.2443 244.463 77.0443C244.262 76.8443 244.062 76.5443 243.861 76.2443C243.661 75.9443 243.661 75.5443 243.661 75.1443C243.661 74.2443 244.062 73.4443 244.763 72.9443C245.565 72.4443 246.467 72.1443 247.469 72.1443C248.471 72.1443 250.174 72.5443 251.277 73.2443L250.475 74.9443C249.573 74.3443 248.571 74.1443 247.469 74.1443C246.366 74.1443 246.767 74.1443 246.366 74.3443C245.966 74.5443 245.865 74.7443 245.865 75.1443C245.865 75.5443 246.066 75.6443 246.366 75.8443C246.667 76.0443 247.168 76.1443 247.87 76.3443C250.475 76.9443 251.778 78.0443 251.778 79.6443C251.778 81.2443 251.377 81.4443 250.475 82.0443C249.673 82.6443 248.671 82.8443 247.469 82.8443C245.765 82.8443 244.362 82.3443 243.26 81.4443V81.5443Z" fill="#BC9B5F"/>
<path d="M276.931 81.8443C276.029 82.6443 275.027 83.0443 273.824 83.0443C272.622 83.0443 271.519 82.6443 270.718 81.8443C269.816 81.0443 269.415 80.0443 269.415 78.7443V72.4443H271.619V78.6443C271.619 79.3443 271.82 79.8443 272.221 80.3443C272.622 80.7443 273.223 80.9443 273.824 80.9443C274.425 80.9443 275.027 80.7443 275.427 80.3443C275.828 79.9443 276.029 79.3443 276.029 78.6443V72.4443H278.233V78.7443C278.233 79.9443 277.832 81.0443 276.931 81.7443V81.8443Z" fill="#BC9B5F"/>
<path d="M296.271 82.8442V72.5442H300.68C302.183 72.5442 303.286 72.9442 304.087 73.6442C304.889 74.3442 305.29 75.3442 305.29 76.5442C305.29 77.7442 305.089 77.8442 304.789 78.4442C304.488 79.0442 303.987 79.5442 303.386 79.8442L305.59 82.8442H302.885L301.281 80.4442C300.881 80.4442 300.38 80.4442 299.778 80.4442H298.576V82.8442H296.371H296.271ZM298.476 78.5442H300.78C301.482 78.5442 301.983 78.3442 302.384 77.9442C302.785 77.5442 302.985 77.0442 302.985 76.4442C302.985 75.8442 302.785 75.3442 302.384 74.9442C301.983 74.5442 301.482 74.3442 300.78 74.3442H298.476V78.4442V78.5442Z" fill="#BC9B5F"/>
<path d="M322.125 82.8442L326.634 72.5442H328.839L333.248 82.8442H331.144L330.442 81.2442H325.232L324.53 82.8442H322.225H322.125ZM325.933 79.4442H329.741L328.939 77.5442L327.837 74.9442C327.436 76.0442 327.136 76.9442 326.835 77.6442L326.033 79.5442L325.933 79.4442Z" fill="#BC9B5F"/>
<path d="M350.585 82.8442V72.5442H352.99L355.696 76.6442C355.896 76.9442 356.197 77.3442 356.497 77.8442C356.798 78.2442 356.998 78.6442 357.199 78.9442L357.499 79.3442V72.6442H359.704V82.9442H357.299L354.693 79.0442C354.393 78.6442 354.092 78.1442 353.792 77.6442C353.491 77.1442 353.19 76.7442 352.99 76.4442L352.689 76.0442V82.8442H350.485H350.585Z" fill="#BC9B5F"/>
<path d="M377.441 77.6442C377.441 76.1442 377.942 74.9442 379.044 73.8442C380.046 72.8442 381.349 72.3442 382.952 72.3442C384.556 72.3442 385.357 72.7442 386.36 73.4442L385.057 74.9442C384.456 74.5442 383.854 74.3442 383.053 74.3442C382.251 74.3442 381.249 74.6442 380.648 75.3442C380.046 75.9442 379.746 76.7442 379.746 77.6442C379.746 78.5442 380.046 79.3442 380.648 79.9442C381.249 80.5442 382.051 80.9442 382.952 80.9442C383.854 80.9442 384.656 80.6442 385.257 80.1442L386.66 81.6442C385.658 82.5442 384.456 82.9442 382.952 82.9442C381.449 82.9442 380.046 82.4442 379.044 81.4442C378.042 80.4442 377.441 79.1442 377.441 77.6442Z" fill="#BC9B5F"/>
<path d="M403.996 82.8442V72.5442H412.113V74.4442H406.201V76.5442H411.813V78.4442H406.201V80.9442H412.314V82.8442H403.896H403.996Z" fill="#BC9B5F"/>
<path d="M46.9492 27.8445C46.9492 29.3445 45.7467 30.5445 44.2435 30.5445C42.7404 30.5445 41.5378 29.3445 41.5378 27.8445H47.0494H46.9492Z" fill="white"/>
<path d="M11.5749 25.0443C10.7733 24.4443 9.87138 23.7443 8.96949 22.7443C4.86089 18.6443 2.55606 13.4443 2.25543 10.9443C2.25543 10.9443 0.351447 17.7443 7.16572 24.6443C9.16991 26.6443 11.0739 27.9443 12.076 28.5443C11.8756 27.3443 11.6752 26.1443 11.6752 24.9443L11.5749 25.0443Z" fill="white"/>
<path d="M12.3766 17.7444C11.4747 16.9444 10.2722 15.7444 9.06969 14.1444C7.76696 12.4444 6.66465 10.5444 5.86298 8.54439C4.86088 6.04439 4.25962 3.44438 4.0592 0.744385C4.0592 0.744385 1.45374 8.94438 6.96528 15.8444C9.06969 18.5444 11.0739 20.1444 11.7754 20.6444C11.8756 19.6444 12.076 18.6444 12.3766 17.6444V17.7444Z" fill="white"/>
<path d="M12.7776 50.9443C12.7776 51.1443 16.4854 55.4443 23.0992 56.1443C20.8946 54.7443 18.7902 53.1443 16.9864 51.3443L12.7776 50.9443Z" fill="white"/>
<path d="M9.87139 40.9443C9.67097 40.4443 9.37034 39.9443 9.16992 39.4443C7.86719 38.6443 5.46216 37.1443 5.46216 37.1443C5.46216 37.1443 5.76279 41.8443 9.9716 45.7443C11.9758 47.6443 14.1804 48.3443 14.7817 48.6443C12.8777 46.3443 11.1741 43.7443 9.87139 41.0443V40.9443Z" fill="white"/>
<path d="M19.5918 45.9444C17.6878 43.7444 16.0845 41.3444 14.7817 38.7444C13.6794 36.4444 13.0782 34.3444 12.7775 33.0444C12.7775 33.0444 12.7775 32.9444 12.7775 32.8444L10.3725 31.3444C10.1721 31.2444 9.97167 31.1444 9.77125 30.9444C9.77125 31.1444 9.87146 31.9444 10.0719 33.0444C8.1679 31.7444 6.56454 30.3444 5.1616 28.7444C3.75866 27.0444 2.65635 25.2444 1.85468 23.2444C0.752367 20.5444 0.451738 18.1444 0.551948 17.2444C0.551948 17.2444 -1.75288 23.9444 3.05719 30.3444C4.86097 32.7444 7.46643 34.7444 10.3725 36.3444L11.1742 36.8444C11.4748 37.7444 11.8757 38.7444 12.3767 39.7444C13.6794 42.6444 15.4832 45.2444 17.5876 47.6444C19.7922 50.1444 22.4979 52.3444 25.5042 54.1444C26.2057 53.5444 26.9071 52.9444 27.7088 52.3444C24.6023 50.6444 21.8966 48.4444 19.5918 45.9444Z" fill="white"/>
<path d="M8.26808 49.1443C8.26808 49.1443 8.26808 48.9443 8.16787 48.8443C7.96745 48.6443 7.76703 48.4443 7.56661 48.2443C5.86304 46.6443 4.46011 44.7443 3.45801 42.6443C3.65843 44.0443 4.15948 46.9443 5.86304 50.2443C7.16577 52.7443 8.96955 54.9443 11.1742 56.6443C13.479 58.5443 16.2849 59.8443 19.4916 60.6443L19.692 60.3443C19.692 60.2443 20.2933 59.4443 21.2954 58.3443C17.9884 57.6443 15.1826 56.4443 12.8777 54.6443C10.9737 53.1443 9.4706 51.3443 8.26808 49.1443Z" fill="white"/>
<path d="M68.1937 25.0443C68.9954 24.4443 69.8972 23.7443 70.7991 22.7443C74.9077 18.6443 77.2126 13.4443 77.5132 10.9443C77.5132 10.9443 79.4172 17.7443 72.6029 24.6443C70.5987 26.6443 68.6947 27.9443 67.6926 28.5443C67.893 27.3443 68.0935 26.1443 68.0935 24.9443L68.1937 25.0443Z" fill="white"/>
<path d="M67.3918 17.7444C68.2937 16.9444 69.4963 15.7444 70.6988 14.1444C72.0015 12.4444 73.1038 10.5444 73.9055 8.54439C74.9076 6.04439 75.5088 3.44438 75.7093 0.744385C75.7093 0.744385 78.3147 8.94438 72.8032 15.8444C67.2916 22.7444 68.6946 20.1444 67.9931 20.6444C67.8929 19.6444 67.6925 18.6444 67.3918 17.6444V17.7444Z" fill="white"/>
<path d="M69.8971 40.9443C70.0975 40.4443 70.3981 39.9443 70.5986 39.4443C71.9013 38.6443 74.3063 37.1443 74.3063 37.1443C74.3063 37.1443 74.0057 41.8443 69.7969 45.7443C67.7927 47.6443 65.5881 48.3443 64.9868 48.6443C66.8908 46.3443 68.5944 43.7443 69.8971 41.0443V40.9443Z" fill="white"/>
<path d="M79.3168 17.2444C79.3168 18.1444 79.1164 20.5444 78.0141 23.2444C77.2124 25.2444 76.1101 27.0444 74.7072 28.7444C73.3042 30.3444 71.7009 31.8444 69.7969 33.0444C69.9973 31.9444 70.0975 31.2444 70.0975 30.9444C69.8971 31.1444 69.5965 31.2444 69.4963 31.3444L67.0912 32.8444C67.0912 32.8444 67.0912 32.9444 67.0912 33.0444C66.7906 34.3444 66.1893 36.2444 65.1872 38.5444C65.1872 39.3444 65.2874 40.0444 65.2874 40.7444C65.2874 41.9444 65.2874 43.1444 64.9868 44.2444C65.9889 42.8444 66.7906 41.3444 67.4921 39.8444C67.9931 38.8444 68.3939 37.8444 68.6946 36.9444L69.4963 36.4444C72.4023 34.7444 75.0078 32.8444 76.8116 30.4444C81.6216 24.0444 79.3168 17.3444 79.3168 17.3444V17.2444Z" fill="white"/>
<path d="M60.4774 26.9443C60.6778 27.1443 60.778 27.4443 60.9785 27.6443C61.4795 24.5443 60.9785 22.2443 60.778 21.4443L57.9722 24.2443C58.8741 25.0443 59.6757 25.9443 60.3772 26.9443H60.4774Z" fill="white"/>
<path d="M21.4957 43.0442C22.7985 44.4442 24.3016 45.6442 25.905 46.6442C27.9092 47.8442 30.0136 48.7442 32.4186 49.3442C33.8215 48.6442 35.1243 48.0442 36.3268 47.4442C32.8194 46.9442 29.8131 45.9442 27.3079 44.4442C24.4018 42.6442 21.9968 40.2442 20.0928 36.9442C18.3892 33.9442 17.1867 31.0442 16.5854 28.2442C16.0844 26.0442 15.9842 23.8442 16.2848 21.7442C16.385 20.8442 16.5854 20.1442 16.7859 19.4442L14.6815 17.3442C14.2806 18.3442 13.98 19.7442 13.6794 21.2442C13.3787 23.6442 13.4789 26.1442 13.98 28.6442C14.5812 31.7442 15.884 35.0442 17.788 38.2442C18.8903 40.1442 20.0928 41.7442 21.4957 43.1442V43.0442Z" fill="white"/>
<path d="M66.0891 21.0443C65.8887 19.4443 65.4879 18.1443 65.087 17.1443L62.9826 19.2443C63.183 19.9443 63.2833 20.6443 63.4837 21.5443C63.6841 23.6443 63.5839 25.7443 63.183 28.0443C62.9826 28.7443 62.8824 29.5443 62.5818 30.2443C63.183 31.4443 63.6841 32.6443 64.0849 33.8443C64.8866 32.0443 65.3877 30.2443 65.7885 28.4443C66.2895 25.9443 66.3898 23.4443 66.0891 21.0443Z" fill="white"/>
<path d="M72.2021 48.3444C72.0017 48.5444 71.8012 48.7444 71.6008 48.9444C71.6008 48.9444 71.6008 49.1444 71.5006 49.2444C70.2981 51.4444 68.7949 53.2444 66.8909 54.7444C66.1895 55.3444 65.3878 55.8444 64.5861 56.2444C63.9849 57.2444 62.7823 58.7444 60.7781 60.3444C60.5777 60.4444 60.4775 60.6444 60.2771 60.7444C63.4838 59.9444 66.2897 58.6444 68.5945 56.7444C70.7991 55.0444 72.6029 52.8444 73.9056 50.3444C75.6092 47.1444 76.2105 44.1444 76.3107 42.7444C75.3086 44.8444 73.9056 46.7444 72.2021 48.3444Z" fill="white"/>
<path d="M62.5818 62.5445C60.9785 66.0445 57.872 71.9445 52.8615 76.7445C48.9533 80.5445 45.5462 82.7445 43.4418 83.9445C41.8384 84.8445 40.6359 85.3445 40.1348 85.5445C39.5336 85.3445 38.3311 84.8445 36.8279 83.9445C34.7235 82.7445 31.3164 80.5445 27.4082 76.7445C23.5 72.9445 20.6941 68.5445 19.0908 65.4445C18.5897 64.4445 18.0887 63.4445 17.6878 62.6445C16.2849 62.2445 14.9822 61.6445 13.6794 61.0445C13.9801 61.9445 14.882 64.1445 16.2849 66.7445C17.9885 70.0445 20.9948 74.8445 25.2036 78.8445C33.3206 86.6445 39.4334 88.4445 39.734 88.4445H40.1348C40.1348 88.5445 40.5357 88.4445 40.5357 88.4445C40.8363 88.4445 46.9491 86.6445 55.0661 78.8445C59.2749 74.7445 62.2812 69.9445 63.9848 66.7445C65.4879 63.8445 66.3898 61.6445 66.6904 60.8445C65.3877 61.5445 64.085 62.0445 62.6821 62.5445H62.5818Z" fill="#BC9B5F"/>
<path d="M63.9847 15.3443L62.7822 13.3443L62.5818 13.1443C62.5818 13.1443 60.3772 11.4443 56.469 9.84428C54.1642 8.94428 51.7591 8.14429 49.3541 7.64429C46.2476 6.94429 43.0409 6.64429 39.734 6.64429C36.427 6.64429 33.2203 6.94429 30.1138 7.64429C27.6086 8.14429 25.2035 8.94428 22.9989 9.84428C19.0907 11.4443 16.9863 13.1443 16.8861 13.1443L16.5855 13.3443L15.6836 15.1443L17.788 17.2443L18.7901 15.1443C19.3914 14.7443 21.2953 13.5443 24.1012 12.3443C26.2056 11.4443 28.4102 10.7443 30.7151 10.2443C33.6212 9.64429 36.6275 9.34428 39.6337 9.34428C42.64 9.34428 45.6463 9.64429 48.5524 10.2443C50.8572 10.7443 53.0619 11.4443 55.1663 12.3443C58.1726 13.5443 59.9763 14.8443 60.5776 15.2443L61.8803 17.3443L63.8845 15.3443H63.9847Z" fill="#BC9B5F"/>
<path d="M60.1768 52.5444C60.1768 52.5444 59.2749 54.1444 57.0703 56.0444C54.064 58.6444 50.9575 60.2444 47.7507 62.0444C45.1453 63.4444 42.4396 64.9444 39.8342 66.8444C35.7256 69.9444 32.9197 73.1444 31.2161 75.2444C31.0157 75.5444 30.7151 75.8444 30.5146 76.1444C31.2161 76.7444 31.9176 77.3444 32.5188 77.9444C32.7193 77.6444 33.0199 77.2444 33.3205 76.9444C34.9239 74.9444 37.5293 71.9444 41.3373 69.1444C43.8426 67.2444 46.2476 65.9444 48.9533 64.5444C52.16 62.8444 55.5671 61.0444 58.7738 58.2444C60.4774 56.7444 61.4795 55.5444 62.0807 54.7444C62.4816 54.7444 67.3919 53.3444 68.5944 50.2444C64.586 52.7444 60.1768 52.7444 60.1768 52.7444V52.5444Z" fill="white"/>
<path d="M50.4565 70.5445C51.8595 68.7445 55.1664 64.9445 58.0725 62.3445C55.467 64.2445 48.9534 66.5445 44.6444 74.5445C43.3416 77.0445 42.2393 80.1445 41.7383 81.8445C41.8385 81.8445 42.0389 81.7445 42.1391 81.6445C43.041 81.1445 44.0431 80.5445 45.3458 79.6445C45.7467 78.6445 46.3479 77.3445 47.1496 75.8445C48.1517 73.9445 49.254 72.2445 50.5567 70.6445L50.4565 70.5445Z" fill="white"/>
<path d="M35.2245 79.9444C36.1264 80.5444 36.928 81.0444 37.5293 81.4444C40.4354 75.0444 43.4417 70.2444 43.4417 70.2444C43.2413 70.4444 39.1327 73.9444 35.1243 79.9444H35.2245Z" fill="white"/>
<path d="M30.615 65.3443C33.4209 62.2443 37.5295 59.4443 42.8406 56.8443C52.4607 52.2443 56.3689 47.6443 56.3689 40.8443C56.3689 34.0443 54.0641 32.2443 52.9618 31.1443L51.4586 33.4443C51.659 33.7443 51.9597 34.1443 52.2603 34.6443C52.9618 35.8443 53.6632 37.8443 53.6632 40.8443C53.6632 43.8443 52.8616 45.8443 51.158 47.8443C49.254 50.0443 46.1475 52.2443 41.6381 54.3443C37.8301 56.1443 32.6192 59.1443 28.5106 63.5443C26.9072 65.2443 25.5043 67.0443 24.3018 69.1443C24.903 69.9443 25.5043 70.7443 26.1055 71.5443C27.3081 69.1443 28.9114 67.1443 30.5148 65.2443L30.615 65.3443Z" fill="white"/>
<path d="M35.1244 55.4444C36.828 54.4444 38.4313 53.6444 40.1349 52.8444C44.1433 50.8444 47.9512 49.0444 50.1559 44.9444C52.2603 40.9444 50.7571 36.3444 50.3563 35.2444L48.3521 38.2444C48.6527 39.7444 48.6527 41.8444 47.7508 43.6444C46.9491 45.1444 45.8468 46.4444 44.2435 47.5444C42.7403 48.6444 40.9366 49.5444 38.9324 50.4444C37.2288 51.2444 35.5252 52.0444 33.7214 53.1444C31.5168 54.4444 29.3122 56.1444 27.308 57.9444C25.7047 59.4444 24.2015 61.0444 22.7986 62.8444C22.2975 63.4444 21.8967 64.0444 21.4958 64.6444C21.8967 65.4444 22.3977 66.3444 22.999 67.2444C24.903 64.3444 28.9114 59.1444 35.1244 55.4444Z" fill="white"/>
<path d="M29.8133 42.6443C33.1203 44.3443 38.9324 45.0443 41.9387 42.1443C47.5505 36.3443 41.5379 27.4443 33.9219 30.3443C35.8259 26.3443 39.6339 25.0443 44.1433 24.9443C48.753 24.9443 52.6612 27.0443 55.4671 30.7443C57.6717 33.7443 58.9744 37.3443 59.0746 41.0443C58.8742 54.2443 43.5421 57.2443 34.8238 64.7443C32.8196 66.1443 29.6129 70.2443 27.5085 73.4443C28.0096 73.9443 28.5106 74.5443 29.1119 75.0443C29.2121 75.1443 29.4125 75.2443 29.5127 75.4443C31.4167 71.9443 35.9261 65.8443 44.8448 61.4443C55.7677 56.2443 64.8868 47.4443 60.7782 35.2443C59.7761 32.4443 58.3731 29.8443 56.3689 27.6443C51.7593 22.1443 43.4419 20.2443 36.4272 24.1443C29.4125 28.0443 30.3144 35.4443 31.1161 37.6443C31.4167 35.9443 35.3249 30.1443 40.0347 33.7443C40.7362 34.3443 41.5379 35.3443 41.5379 36.9443C41.5379 39.8443 39.5337 41.6443 36.6276 41.5443C27.8091 41.7443 21.6963 32.1443 21.4959 24.1443L18.9907 21.6443C17.688 28.9443 22.8989 39.4443 29.9135 42.8443L29.8133 42.6443Z" fill="white"/>
</svg>
