<svg width="300" height="150" viewBox="0 0 300 150" fill="none" xmlns="http://www.w3.org/2000/svg">
<path d="M15.0726 117.599C18.0567 118.616 21.1984 119.163 24.5727 119.163C38.8631 119.163 48.8339 108.835 48.8339 89.2003V30.6815L54.2527 28.0986V90.217C54.2527 110.245 43.8879 121.901 29.2055 121.901C24.1038 121.901 19.3134 120.337 15.0726 117.599ZM8.87175 111.652C12.1691 112.747 15.4665 113.452 18.3718 113.452C30.3834 113.452 38.3923 105.942 38.3923 88.9648V35.1409L43.7303 32.6364V89.4339C43.7303 107.193 34.7011 116.268 22.14 116.268C17.5072 116.268 12.7956 114.547 8.87175 111.652ZM5.10172 106.333C8.00709 107.193 10.6761 107.74 13.0319 107.74C22.3763 107.74 28.1064 102.655 28.1064 89.2769V39.6786L33.3675 37.1742V88.4956C33.3675 103.516 26.4577 110.323 16.5656 110.323C12.4036 110.323 8.47789 108.914 5.10172 106.333ZM23.1603 90.686V41.7121L0 52.1165V91.8598C0 99.4477 4.7885 104.533 11.854 104.533C18.8426 104.533 23.1603 99.3692 23.1603 90.686Z" fill="black"/>
<path d="M84.0728 41.6281V59.8878C84.0728 66.631 88.0735 71.8977 95.7298 71.8977C102.298 71.8977 107.239 67.0739 107.239 59.7401V42.1215C107.239 40.2021 108.523 38.6266 110.695 38.4789L111.388 38.4285V36.7072H99.8787V38.4285L100.62 38.4789C102.743 38.6266 104.076 40.1517 104.076 42.1215V59.2C104.076 64.762 101.164 68.156 96.6189 68.156C92.0254 68.156 89.3076 64.5639 89.3076 59.1495V41.6281C89.3076 39.7087 90.3449 38.6266 92.5187 38.4789L93.2108 38.4285V36.7072H80.1208V38.4285L80.8617 38.4789C82.9849 38.6266 84.0728 39.6601 84.0728 41.6281Z" fill="black"/>
<path d="M99.6107 80.5772L100.352 80.6258C102.178 80.7249 103.563 81.4632 103.563 83.5302V94.2599H90.6207V83.5302C90.6207 81.4632 92.0049 80.7754 93.8318 80.6258L94.5239 80.5772V78.8541H81.4339V80.5772L82.1748 80.6258C84.0016 80.7249 85.3858 81.4632 85.3858 83.5302V108.632C85.3858 110.699 84.0016 111.437 82.1748 111.535L81.4339 111.585V113.306H94.5239V111.585L93.8318 111.535C92.0049 111.387 90.6207 110.699 90.6207 108.632V96.9175H103.563V108.632C103.563 110.699 102.178 111.437 100.352 111.535L99.6107 111.585V113.306H112.701V111.585L112.009 111.535C110.182 111.387 108.797 110.699 108.797 108.632V83.5302C108.797 81.4632 110.182 80.7754 112.009 80.6258L112.701 80.5772V78.8541H99.6107" fill="black"/>
<path d="M111.337 46.7963V48.4205L112.326 48.4691C113.856 48.5681 114.796 49.3064 114.796 51.3734V66.5325C114.796 68.5995 113.757 69.3378 112.078 69.4368L111.337 69.4854V71.1581H123.043V69.4854L122.353 69.4368C120.672 69.3378 119.635 68.5995 119.635 66.5325V58.4605C119.734 52.5546 122.302 49.0111 125.316 49.0111C127.636 49.0111 129.169 50.5866 129.169 53.6367V66.5325C129.169 68.5995 128.132 69.3378 126.451 69.4368L125.71 69.4854V71.1581H137.416V69.4854L136.726 69.4368C135.047 69.3378 134.008 68.5995 134.008 66.5325V53.0966C134.008 49.2578 131.637 46.0581 126.944 46.0581C123.636 46.0581 120.772 48.0261 119.635 51.5211V46.1572" fill="black"/>
<path d="M178.908 71.6511C183.895 71.6511 186.712 68.2553 187.847 64.4164L185.724 63.8259C184.735 66.4835 183.008 68.5506 179.549 68.5506C175.548 68.5506 172.831 64.7622 172.831 58.7554H188.194V57.3294C188.194 50.9805 184.439 45.8615 178.412 45.8615C171.943 45.8615 167.644 52.0122 167.644 58.7554C167.644 65.4986 171.795 71.6511 178.908 71.6511ZM178.364 48.6668C181.08 48.6668 182.809 51.1768 183.008 56.3444H172.93C173.425 51.5711 175.4 48.6668 178.364 48.6668Z" fill="black"/>
<path d="M154.605 65.6467C154.605 69.4855 156.927 71.6517 160.632 71.6517C164.089 71.6517 166.362 69.1417 167.399 65.5477L165.621 65.0561C164.929 67.1232 163.792 68.4034 162.211 68.4034C160.137 68.4034 159.446 66.8765 159.446 65.1047V49.1588H166.214V46.5984H159.446V39.0198H156.976C156.037 44.7294 153.124 46.7964 150.061 47.4356V49.1588H154.605" fill="black"/>
<path d="M144.233 42.1695C145.912 42.1695 147.394 40.7435 147.394 38.8727C147.394 37.1009 145.912 35.673 144.233 35.673C142.506 35.673 141.073 37.1009 141.073 38.8727C141.073 40.7435 142.506 42.1695 144.233 42.1695Z" fill="black"/>
<path d="M141.962 51.3733V66.5324C141.962 68.5995 140.924 69.3377 139.244 69.4368L138.503 69.4853V71.1581H150.211V69.4853L149.519 69.4368C147.84 69.3377 146.803 68.5995 146.803 66.5324V46.1571L138.257 46.7963V48.4204L139.491 48.469C141.022 48.5195 141.962 49.3063 141.962 51.3733Z" fill="black"/>
<path d="M200.787 71.6511C204.047 71.6511 206.566 69.9784 207.653 67.1245V71.1577H215.902V69.4869L215.21 69.4364C213.532 69.3374 212.494 68.5991 212.494 66.5321V36.0663L204.097 36.8045V38.4286L205.183 38.4791C206.714 38.5277 207.653 39.3145 207.653 41.3816V50.2404C206.566 47.4855 204.047 45.8615 200.787 45.8615C194.316 45.8615 190.662 52.0121 190.662 58.7553C190.662 65.4985 194.316 71.6511 200.787 71.6511ZM201.627 48.6667C205.283 48.6667 207.653 52.6046 207.653 58.7553C207.653 64.9079 205.283 68.8458 201.627 68.8458C198.17 68.8458 195.897 64.9584 195.897 58.7553C195.897 52.5542 198.17 48.6667 201.627 48.6667Z" fill="black"/>
<path d="M274.315 88.1072C271.45 88.1072 268.98 89.978 267.894 93.3235V88.3053L259.595 88.9445V90.5686L260.583 90.6172C262.115 90.7163 263.053 91.4545 263.053 93.5215V108.681C263.053 110.748 262.014 111.486 260.335 111.585L259.595 111.634V113.306H271.302V111.634L270.61 111.585C268.931 111.486 267.894 110.748 267.894 108.681V100.412C267.992 94.2598 270.659 90.421 273.919 90.421C274.66 90.421 275.155 90.6172 275.549 91.0602C274.71 91.5031 274.166 92.3404 274.166 93.3739C274.166 94.8018 275.352 95.983 276.785 95.983C278.218 95.983 279.403 94.8018 279.403 93.1272C279.403 90.0266 277.081 88.1072 274.315 88.1072Z" fill="black"/>
<path d="M290.219 88.0095C283.75 88.0095 279.451 94.1602 279.451 100.903C279.451 107.647 283.6 113.799 290.714 113.799C295.701 113.799 298.516 110.403 299.653 106.564L297.53 105.974C296.541 108.631 294.812 110.699 291.355 110.699C287.355 110.699 284.637 106.908 284.637 100.903H300V99.4773C300 93.1285 296.245 88.0095 290.219 88.0095ZM284.736 98.4924C285.231 93.7191 287.206 90.8148 290.17 90.8148C292.886 90.8148 294.615 93.3247 294.812 98.4924" fill="black"/>
<path d="M255.397 109.222V96.3753C255.397 91.1104 252.087 88.0079 246.505 88.0079C241.714 88.0079 237.466 91.159 237.466 94.7511C237.466 96.2781 238.603 97.4592 240.085 97.4592C241.518 97.4592 242.703 96.2781 242.703 94.8502C242.703 93.8652 242.159 92.9794 241.369 92.5364C242.258 91.3067 243.838 90.5684 245.766 90.5684C248.778 90.5684 250.605 92.8317 250.605 96.6219V97.7546L243.296 100.756C238.404 102.775 236.725 104.546 236.725 107.746C236.725 111.437 239.392 113.8 243.592 113.8C246.752 113.8 249.371 111.88 250.556 108.976V109.714C250.556 112.224 252.334 113.751 255.298 113.751C256.483 113.751 257.421 113.601 258.409 113.306V111.633C256.335 111.88 255.397 111.093 255.397 109.222ZM250.556 103.66C250.309 107.991 248.137 110.895 245.122 110.895C242.949 110.895 241.566 109.419 241.566 107.154C241.566 105.137 242.652 103.561 244.729 102.676L250.605 100.068" fill="black"/>
<path d="M186.049 107.204C185.356 109.271 184.22 110.551 182.641 110.551C180.566 110.551 179.874 109.026 179.874 107.254V91.3063H186.641V88.7476H179.874V81.1672H177.404C176.466 86.8769 173.551 88.9439 170.488 89.585V91.3063H175.033V107.794C175.033 111.635 177.355 113.799 181.059 113.799C184.518 113.799 186.789 111.289 187.827 107.697" fill="black"/>
<path d="M154.734 109.222V96.3753C154.734 91.1104 151.423 88.0079 145.841 88.0079C141.051 88.0079 136.803 91.159 136.803 94.7511C136.803 96.2781 137.939 97.4592 139.421 97.4592C140.854 97.4592 142.039 96.2781 142.039 94.8502C142.039 93.8652 141.496 92.9794 140.706 92.5364C141.595 91.3067 143.174 90.5684 145.102 90.5684C148.115 90.5684 149.941 92.8317 149.941 96.6219V97.7546L142.632 100.756C137.741 102.775 136.062 104.546 136.062 107.746C136.062 111.437 138.729 113.8 142.929 113.8C146.089 113.8 148.707 111.88 149.893 108.976V109.714C149.893 112.224 151.671 113.751 154.634 113.751C155.82 113.751 156.758 113.601 157.746 113.306V111.633C155.672 111.88 154.734 111.093 154.734 109.222ZM149.893 103.66C149.645 107.991 147.473 110.895 144.459 110.895C142.287 110.895 140.903 109.419 140.903 107.154C140.903 105.137 141.989 103.561 144.065 102.676L149.941 100.068" fill="black"/>
<path d="M226.897 110.699C222.896 110.699 220.178 106.908 220.178 100.903C220.178 94.8012 222.845 90.9138 226.848 90.9138C228.626 90.9138 230.008 91.5025 230.847 92.5865C230.108 93.0781 229.613 93.9154 229.613 94.8498C229.613 96.2777 230.798 97.4589 232.231 97.4589C233.713 97.4589 234.849 96.2777 234.849 94.6031C234.849 91.6502 231.886 88.0095 226.6 88.0095C219.24 88.0095 214.992 94.162 214.992 100.903C214.992 107.647 219.141 113.799 226.255 113.799C231.145 113.799 233.91 110.551 234.998 106.86L232.872 106.221C231.935 108.731 230.254 110.699 226.897 110.699Z" fill="black"/>
<path d="M167.23 108.68V78.2146L158.833 78.9529V80.577L159.919 80.6256C161.451 80.676 162.389 81.4628 162.389 83.5299V108.68C162.389 110.747 161.352 111.486 159.673 111.585L158.932 111.633V113.306H170.638V111.633L169.946 111.585C168.267 111.486 167.23 110.747 167.23 108.68Z" fill="black"/>
<path d="M210.498 108.68V95.2445C210.498 91.4057 208.128 88.206 203.435 88.206C200.126 88.206 197.26 90.1741 196.124 93.669V78.2146L187.728 78.9529V80.577L188.814 80.6256C190.345 80.676 191.284 81.4628 191.284 83.5299V108.68C191.284 110.747 190.247 111.486 188.567 111.585L187.826 111.633V113.306H199.533V111.633L198.841 111.585C197.161 111.486 196.124 110.747 196.124 108.68V100.608C196.223 94.7025 198.793 91.1589 201.805 91.1589C204.125 91.1589 205.657 92.7345 205.657 95.7865V108.68C205.657 110.747 204.62 111.486 202.941 111.585L202.201 111.633V113.306H213.906V111.633L213.214 111.585C211.536 111.486 210.498 110.747 210.498 108.68Z" fill="black"/>
<path d="M124.406 88.0095C117.935 88.0095 113.638 94.1602 113.638 100.903C113.638 107.647 117.787 113.799 124.899 113.799C129.888 113.799 132.704 110.403 133.84 106.564L131.715 105.974C130.729 108.631 128.999 110.699 125.543 110.699C121.542 110.699 118.824 106.908 118.824 100.903H134.186V99.4773C134.186 93.1285 130.432 88.0095 124.406 88.0095ZM118.924 98.4924C119.419 93.7191 121.394 90.8148 124.357 90.8148C127.073 90.8148 128.803 93.3247 128.999 98.4924" fill="black"/>
</svg>
