<svg width="300" height="150" viewBox="0 0 300 150" fill="none" xmlns="http://www.w3.org/2000/svg">
<path d="M34.1098 66.7163C36.8553 66.7163 54.6733 74.6266 54.6733 103.04C54.6733 116.619 50.1265 127.937 47.447 127.937C46.2637 127.937 45.8152 126.749 45.8152 124.465C45.8152 119.437 47.577 114.984 47.577 104.253C47.577 83.5338 39.092 75.1743 35.2932 70.4687C34.172 69.0758 33.3222 68.1699 33.3222 67.3512C33.3222 67.0176 33.5577 66.7163 34.1098 66.7163ZM79.0205 67.3512C79.0205 68.1699 78.1707 69.0758 77.0496 70.4687C73.2527 75.1743 64.7714 83.5338 64.7714 104.25C64.7714 114.982 66.5257 119.435 66.5257 124.465C66.5257 126.749 66.0772 127.937 64.8976 127.937C62.2125 127.937 57.6675 116.619 57.6675 103.04C57.6675 74.6266 75.4893 66.7163 78.2386 66.7163C78.7869 66.7163 79.0205 67.0176 79.0205 67.3512Z" fill="black"/>
<path d="M49.6667 72.4036C49.6667 76.1143 52.5761 79.1181 56.1676 79.1181C59.7704 79.1181 62.6835 76.1143 62.6835 72.4036C62.6835 68.6892 59.7704 65.6891 56.1694 65.6891C52.5761 65.6891 49.6667 68.6892 49.6667 72.4036Z" fill="black"/>
<path d="M22.3743 61.7889C18.9731 60.2425 16.4255 57.1421 16.011 54.1345C18.536 52.463 22.5251 52.3341 25.9281 53.8824C29.4895 55.5028 30.3242 58.2412 30.345 60.65C28.5304 62.2305 25.9394 63.4131 22.3743 61.7889ZM32.1313 43.7074C29.9417 40.3246 29.433 36.0416 30.7878 33.0832C34.0307 33.0396 37.7126 35.2532 39.8984 38.6322C42.1822 42.1761 41.3588 45.1363 39.987 47.3252C37.4356 47.6948 34.4151 47.2513 32.1313 43.7074ZM37.1963 61.6222C34.498 59.3215 32.9811 55.8325 33.3806 52.9803C36.1128 52.1199 39.7854 53.0486 42.4837 55.3455C45.3102 57.7599 45.3554 60.4699 44.7505 62.6721C42.6891 63.6291 40.0228 64.0271 37.1963 61.6203M45.4515 52.9633C44.2908 49.1881 44.9446 45.0094 47.0117 42.5779C50.0813 43.4061 52.9642 46.4933 54.125 50.2684C55.3404 54.2235 53.7707 56.7915 51.8996 58.4876C49.4029 58.1503 46.6612 56.9184 45.4515 52.9633ZM31.2344 80.5281C28.5473 81.0549 25.7114 80.2798 24.1889 78.6557C24.9897 76.571 27.3395 74.7896 30.0303 74.2647C32.8473 73.7151 34.5036 74.9981 35.5362 76.4365C35.1123 78.1611 34.0608 79.9728 31.2344 80.5281ZM24.1305 72.5211C21.0685 72.1876 18.2797 70.4175 17.183 68.1623C18.7301 66.1951 21.8373 65.0637 24.9012 65.3973C28.1102 65.7479 29.4631 67.6809 30.0981 69.5666C29.0731 71.2779 27.3414 72.8717 24.1305 72.5211ZM23.8573 49.6525C21.4548 47.6019 20.1075 44.5034 20.4636 41.9696C22.8887 41.2001 26.1543 42.0283 28.5568 44.0713C31.0648 46.2166 31.1119 48.6253 30.573 50.5849C28.7358 51.4377 26.3691 51.7902 23.8573 49.6525ZM40.2282 33.3978C39.2596 30.2519 39.8099 26.7648 41.5284 24.7427C44.091 25.4382 46.4954 28.008 47.4639 31.1502C48.4758 34.4477 47.1643 36.5836 45.6022 38.0049C43.5201 37.7206 41.2457 36.6973 40.2301 33.3997M0 115.031C0 115.116 0.0546451 115.185 0.162051 115.185C0.261919 115.185 0.442813 115.103 0.638782 115.033C10.2525 111.565 24.4471 107.308 44.368 106.012C44.3925 105.83 44.5093 104.938 44.5093 104.25C44.5093 102.8 44.3397 101.287 44.2945 101.035C23.8818 102.919 9.79277 108.872 0.537029 114.593C0.160166 114.828 0 114.881 0 115.031ZM82.0034 60.6481C82.0241 58.2412 82.8551 55.5009 86.4164 53.8805C89.8157 52.3322 93.8105 52.4592 96.3336 54.1326C95.9171 57.1402 93.3733 60.2406 89.974 61.7851C86.4051 63.4093 83.8161 62.2286 82.0034 60.6481ZM72.3595 47.3233C70.9915 45.1344 70.1642 42.1723 72.4518 38.6284C74.6357 35.2513 78.3158 33.0378 81.5606 33.0813C82.9116 36.0397 82.3991 40.3227 80.2171 43.7055C77.9333 47.2494 74.9071 47.6929 72.3595 47.3233ZM67.5922 62.6702C66.9911 60.468 67.0363 57.758 69.8628 55.3436C72.5649 53.0467 76.2317 52.118 78.9677 52.9803C79.3635 55.8287 77.8485 59.3196 75.1483 61.6184C72.3274 64.0252 69.6536 63.6272 67.5922 62.6702ZM60.445 58.4876C58.5738 56.7915 57.0061 54.2235 58.2215 50.2665C59.3766 46.4933 62.2727 43.408 65.3366 42.5779C67.4037 45.0094 68.0576 49.1863 66.8968 52.9633C65.6815 56.9184 62.9511 58.1503 60.445 58.4876ZM76.814 76.4384C77.8466 75.0038 79.4954 73.7151 82.3181 74.2666C85.0126 74.7915 87.3567 76.5767 88.1594 78.6576C86.6407 80.2817 83.801 81.0549 81.1102 80.53C78.2875 79.9747 77.2304 78.1611 76.814 76.4384ZM82.2502 69.5685C82.8852 67.6828 84.2401 65.7498 87.449 65.3992C90.5111 65.0656 93.6145 66.2008 95.1615 68.1661C94.0667 70.4175 91.2761 72.1895 88.2178 72.523C85.0051 72.8736 83.2696 71.2798 82.2502 69.5685ZM81.7735 50.5868C81.2327 48.6272 81.276 46.2185 83.7916 44.0713C86.1941 42.0302 89.4577 41.2001 91.8828 41.9714C92.2371 44.5053 90.8898 47.6038 88.4892 49.6525C85.9793 51.794 83.6069 51.4415 81.7735 50.5868ZM66.7423 38.0068C65.1802 36.5855 63.8725 34.4496 64.8863 31.1521C65.8511 28.0099 68.2592 25.4401 70.8087 24.7446C72.5422 26.7686 73.083 30.2538 72.1183 33.3997C71.1045 36.6973 68.8264 37.7225 66.7423 38.0068ZM111.808 114.595C102.556 108.874 88.4666 102.921 68.0519 101.037C67.9157 102.103 67.844 103.177 67.8371 104.251C67.8371 104.939 67.9558 105.832 67.9784 106.014C87.8975 107.312 102.088 111.567 111.71 115.035C111.907 115.105 112.092 115.186 112.181 115.186C112.294 115.186 112.35 115.116 112.35 115.035C112.35 114.883 112.181 114.83 111.808 114.595ZM56.1713 41.3138C53.5277 40.0763 50.9235 37.7756 50.9235 32.9942C50.9235 28.4269 53.066 24.0339 56.1732 22.063C59.2805 24.0339 61.4229 28.425 61.4229 32.9923C61.4229 37.7756 58.8226 40.0763 56.1713 41.3138Z" fill="black"/>
<path d="M155.87 57.4794C155.87 60.2956 158.177 62.5792 161.033 62.5792C163.882 62.5792 166.193 60.2956 166.193 57.4794C166.193 54.6651 163.882 52.3853 161.031 52.3853C158.177 52.3853 155.87 54.6651 155.87 57.4794ZM196.168 84.3203C196.168 92.369 193.04 95.7215 188.514 95.7215C183.948 95.7215 181.391 91.825 181.391 84.9912C181.391 78.017 185.358 72.252 192.705 72.252C194.22 72.252 195.279 72.4036 196.168 72.6197V84.3203ZM196.609 97.5218V100.137C196.609 107.31 192.217 110.096 186.766 110.096C181.866 110.096 178.252 108.612 177.108 108.212V115.31C178.039 115.562 182.019 116.82 187.696 116.82C197.777 116.82 204.514 112.636 204.514 98.2932V67.3417C203.221 67.012 198.488 65.7498 193.038 65.7498C178.897 65.7498 172.82 75.2824 172.82 85.5957C172.82 95.0771 177.563 102.51 186.647 102.51C192.637 102.51 195.516 98.8712 196.453 97.5218H196.609ZM148.522 93.1441C146.251 94.2148 142.618 94.9198 139.102 94.9198C129.514 94.9198 122.454 88.0215 122.454 77.511C122.454 67.0707 129.465 60.0909 139.102 60.0909C143.879 60.0909 147.278 61.2659 148.523 61.861V54.3486C146.426 53.5659 143.025 52.7757 138.216 52.7757C123.34 52.7757 113.338 63.1231 113.338 77.5148C113.338 91.1163 122.541 102.239 138.218 102.239C142.816 102.239 146.275 101.505 148.522 100.66V93.1441ZM274.784 84.3203C274.784 92.369 271.652 95.7215 267.128 95.7215C262.56 95.7215 259.988 91.825 259.988 84.9912C259.988 78.017 263.975 72.252 271.317 72.252C272.483 72.2333 273.647 72.3568 274.784 72.6197V84.3203ZM284.179 101.725C283.909 99.7657 283.129 94.592 283.129 90.1384V67.3417C281.823 67.012 277.088 65.7498 271.652 65.7498C257.503 65.7498 251.433 75.2824 251.433 85.5957C251.433 95.0771 256.161 102.51 265.253 102.51C271.893 102.51 274.867 98.1927 275.99 95.8901H276.208C276.293 96.9836 276.591 100.698 276.691 101.727H284.183L284.179 101.725ZM165.209 66.6481H156.865V101.723H165.209V66.6481ZM213.96 101.723V77.4542C213.96 74.2002 213.666 67.9595 213.581 66.5439H221.077L221.429 71.4769H221.586C222.456 70.0972 225.262 65.7498 231.802 65.7498C239.7 65.7498 244.088 71.5868 244.088 78.8604V101.725H235.75V80.5186C235.75 76.0518 233.282 72.6765 229.031 72.6765C224.648 72.6765 222.311 76.2394 222.311 80.5186V101.723H213.96ZM296.423 95.6968C296.21 95.5736 295.862 95.5168 295.392 95.5168H294.663V97.2717H295.434C295.709 97.2855 295.985 97.2502 296.248 97.1675C296.579 97.0348 296.747 96.7827 296.747 96.4056C296.747 96.0531 296.64 95.8181 296.423 95.6968ZM295.504 94.9331C296.103 94.9331 296.546 94.9899 296.823 95.1036C297.326 95.3197 297.572 95.7234 297.572 96.3355C297.572 96.7714 297.416 97.0973 297.103 97.2963C296.89 97.4222 296.652 97.5022 296.406 97.5313C296.738 97.5654 297.039 97.7398 297.237 98.0108C297.398 98.2282 297.49 98.4901 297.499 98.7613V99.1176C297.499 99.2313 297.499 99.3507 297.507 99.4776C297.507 99.5648 297.523 99.652 297.552 99.7335L297.578 99.7903H296.783L296.772 99.7429C296.77 99.7278 296.76 99.7088 296.76 99.688L296.743 99.5345V99.1498C296.743 98.5888 296.587 98.2155 296.287 98.0354C296.105 97.9369 295.788 97.8762 295.34 97.8762H294.667V99.7903H293.815V94.9331H295.507H295.504ZM292.911 94.6867C292.555 95.0363 292.274 95.4554 292.085 95.9181C291.896 96.3809 291.803 96.8776 291.812 97.3778C291.812 98.4391 292.178 99.3488 292.911 100.094C293.608 100.827 294.582 101.234 295.592 101.217C296.642 101.217 297.539 100.842 298.275 100.094C299.005 99.3507 299.374 98.4391 299.374 97.3835C299.374 96.326 299.005 95.4277 298.275 94.6848C297.928 94.3233 297.511 94.0371 297.049 93.8442C296.588 93.6512 296.092 93.5555 295.592 93.5629C295.093 93.5546 294.597 93.65 294.136 93.843C293.675 94.0361 293.259 94.3226 292.913 94.6848L292.911 94.6867ZM298.707 100.516C298.304 100.937 297.82 101.269 297.284 101.493C296.748 101.717 296.172 101.828 295.592 101.818C295.012 101.828 294.436 101.717 293.901 101.493C293.365 101.269 292.881 100.937 292.479 100.516C292.065 100.108 291.738 99.6184 291.518 99.0785C291.297 98.5387 291.189 97.9594 291.198 97.3759C291.198 96.1554 291.633 95.1131 292.487 94.2489C292.889 93.8318 293.372 93.502 293.907 93.2797C294.441 93.0574 295.014 92.9474 295.592 92.9564C296.172 92.9463 296.747 93.0558 297.283 93.2781C297.818 93.5004 298.303 93.8308 298.707 94.2489C299.57 95.1074 300 96.1517 300 97.374C300.009 97.9588 299.899 98.5393 299.677 99.0797C299.454 99.6201 299.124 100.109 298.707 100.516Z" fill="black"/>
</svg>
