<svg width="300" height="150" viewBox="0 0 300 150" fill="none" xmlns="http://www.w3.org/2000/svg">
<path d="M283.267 49.004L282.581 48.9864V43.3263H270.795V106.588H284.515V71.2843C284.515 65.5468 285.284 58.9905 291.098 56.1208C293.471 54.8596 297.269 53.8254 300 53.8254V41.545C293.353 41.7762 287.301 43.4968 283.267 49.004ZM227.728 97.5525C215.149 97.5525 205.3 87.1075 205.3 75.1738C205.3 62.7774 214.794 52.4473 227.846 52.4473C241.256 52.4473 250.632 62.434 250.632 75.1738C250.632 87.4512 240.544 97.5525 227.728 97.5525H227.728ZM249.762 51.5344C244.816 44.77 236.348 41.545 227.846 41.545C207.911 41.545 192.958 56.0057 192.958 75.288C192.958 94.4534 208.148 108.455 227.846 108.455C236.565 108.455 245.028 104.916 249.762 97.7382V106.588H263.225V43.326H249.762V51.5344ZM157.237 52.4476C166.02 52.4476 172.071 56.9233 175.75 64.3837H189.397C185.717 50.7267 171.24 41.545 157.118 41.545C137.656 41.545 123.299 56.3502 123.299 74.9429C123.299 93.5362 137.42 108.455 157 108.455C172.071 108.455 184.532 99.5028 189.397 85.8466H175.632C172.19 93.1907 165.426 97.5528 157 97.5528C143.828 97.5528 135.64 86.9936 135.64 74.9429C135.64 62.4343 143.709 52.4476 157.238 52.4476H157.237ZM98.7325 67.4839C94.2228 66.1072 88.5278 64.8431 88.5278 59.2193C88.5278 54.973 92.0871 52.4476 96.2402 52.4476C101.225 52.4476 104.072 55.5466 104.666 60.1377H117.008C116.77 49.1203 108.108 41.545 96.8332 41.545C86.035 41.545 76.1853 49.004 76.1853 59.9069C76.1853 82.403 106.208 75.5174 106.208 88.8293C106.208 94.3377 102.173 97.5528 96.7151 97.5528C89.3578 97.5528 87.5719 92.5178 87.0961 85.9776H73.548C73.548 95.9611 78.3214 103.635 88.052 106.963C90.7822 107.883 93.6296 108.455 96.4781 108.455C109.056 108.455 118.551 100.651 118.551 88.1426C118.551 75.8605 109.532 70.6963 98.7325 67.4839ZM35.4814 97.5528C22.6652 97.5528 12.341 87.3378 12.341 74.9429C12.341 62.5483 22.6652 52.4476 35.4814 52.4476C48.2982 52.4476 58.6219 62.4343 58.6219 74.8286C58.6219 87.2227 48.416 97.5528 35.4814 97.5528ZM35.4814 41.545C16.4938 41.545 0 55.8914 0 74.5975C0 93.421 16.1388 108.455 35.4814 108.455C55.4186 108.455 70.9644 92.9608 70.9644 74.8286C70.9644 56.0054 54.7061 41.545 35.4814 41.545Z" fill="black"/>
</svg>
