<svg width="300" height="150" viewBox="0 0 300 150" fill="none" xmlns="http://www.w3.org/2000/svg">
<path d="M296.063 59.1298C298.241 59.1298 300 60.9025 300 63.0989C300 65.2974 298.241 67.0759 296.063 67.0759C293.884 67.0759 292.125 65.2974 292.125 63.0989C292.125 60.9025 293.884 59.1298 296.063 59.1298ZM296.063 59.5874C294.139 59.5874 292.574 61.16 292.574 63.0989C292.574 65.0438 294.139 66.6204 296.063 66.6204C297.987 66.6204 299.548 65.0438 299.548 63.0989C299.548 61.16 297.987 59.5874 296.063 59.5874ZM297.997 65.2973C297.799 65.2874 297.605 65.2657 297.402 65.2657C297.208 65.2657 297.008 65.2874 296.805 65.2973C295.68 63.2138 295.663 63.2039 295.608 63.2039C295.567 63.2039 295.567 63.2236 295.567 63.3801C295.567 64.0238 295.602 65.0636 295.631 65.2874C295.468 65.2775 295.292 65.2538 295.115 65.2538C294.952 65.2538 294.775 65.2775 294.601 65.2874C294.601 65.1309 294.663 64.4794 294.663 62.8138C294.663 61.4591 294.632 61.0153 294.601 60.7381C294.885 60.7499 295.184 60.7619 295.457 60.7619C295.653 60.7619 295.94 60.7381 296.368 60.7381C297.161 60.7381 297.658 61.2075 297.658 61.8571C297.658 62.4928 297.173 62.9603 296.59 63.0455L297.997 65.2973ZM295.94 61.0945H295.602C295.574 61.8947 295.574 62.3918 295.574 62.9206C295.873 62.9206 296.623 62.9207 296.623 61.9364C296.623 61.3719 296.271 61.0945 295.94 61.0945Z" fill="black"/>
<path d="M114.86 70.4824C113.858 77.7431 113.432 85.0495 112.955 92.3103C112.193 92.1657 111.428 92.0686 110.715 92.0686C109.953 92.0686 109.239 92.1657 108.473 92.3103C110.473 81.2528 112.048 70.1933 113.385 59.1378C114.051 59.2804 114.669 59.3754 115.335 59.3754C115.959 59.3754 116.625 59.2804 117.245 59.1378C120.721 66.7788 124.775 75.3387 128.254 82.1182C132.02 74.9545 135.929 66.7788 139.359 59.1378C140.027 59.2804 140.741 59.3754 141.409 59.3754C142.077 59.3754 142.742 59.2804 143.412 59.1378C144.653 70.1933 146.316 85.5308 147.509 92.3103C146.223 92.1657 144.937 92.0686 143.649 92.0686C142.363 92.0686 141.028 92.1657 139.691 92.3103C139.359 85.6278 138.55 77.4521 137.789 70.0032H137.692C134.115 77.4521 130.589 84.8574 127.157 92.3103C126.874 92.2627 126.538 92.2132 126.253 92.2132C125.965 92.2132 125.633 92.2627 125.346 92.3103C121.961 85.0495 118.531 77.7431 114.958 70.4824" fill="black"/>
<path d="M169.148 58.5098C179.252 58.5098 187.21 64.0871 187.21 75.6734C187.21 85.1939 179.633 92.936 169.003 92.936C158.948 92.936 150.843 87.7409 150.843 75.7249C150.843 66.2498 158.086 58.5098 169.148 58.5098ZM169.003 61.2529C162.475 61.2529 158.662 67.8878 158.662 76.1567C158.662 86.3962 163.331 89.9512 168.669 89.9512C174.389 89.9512 179.393 85.1463 179.393 74.6652C179.393 66.3468 175.154 61.2529 169.003 61.2529Z" fill="black"/>
<path d="M193.12 72.4551C193.12 67.068 193.023 63.3683 192.739 59.1359C193.785 59.2329 195.073 59.3755 196.646 59.3755C198.219 59.3755 199.507 59.2329 200.555 59.1359C200.27 63.3683 200.174 67.068 200.174 72.4551V78.9949C200.174 82.55 200.219 86.2041 200.27 88.7036C203.844 88.7036 207.511 88.5115 211.181 88.0797C211.087 88.7531 210.991 89.2344 210.991 90.2445C210.991 91.2546 211.087 91.7339 211.181 92.3063C209.465 92.2627 207.229 92.0687 202.842 92.0687C195.073 92.0687 193.785 92.2152 192.739 92.3063C193.023 88.0798 193.12 84.3761 193.12 78.9949" fill="black"/>
<path d="M217.14 72.4551C217.14 67.068 217.044 63.3683 216.759 59.1359C217.806 59.2329 219.094 59.3755 220.668 59.3755C222.239 59.3755 223.529 59.2329 224.573 59.1359C224.289 63.3683 224.193 67.068 224.193 72.4551V78.9949C224.193 84.3761 224.289 88.0798 224.573 92.3063C223.529 92.2152 222.239 92.0687 220.668 92.0687C219.094 92.0687 217.806 92.2152 216.759 92.3063C217.044 88.0798 217.14 84.3761 217.14 78.9949" fill="black"/>
<path d="M233.012 59.1359C233.727 59.2824 234.44 59.3774 235.156 59.3774C235.871 59.3774 236.588 59.2824 237.298 59.1359C244.162 66.7789 250.977 74.3762 257.987 82.0251C257.987 74.3762 257.987 61.3006 257.651 59.1359C258.366 59.2824 259.082 59.3774 259.793 59.3774C260.512 59.3774 261.226 59.2824 261.941 59.1359C261.177 73.1266 261.177 79.5217 261.177 92.3083C260.512 92.1657 259.889 92.0687 259.224 92.0687C258.556 92.0687 257.938 92.1657 257.368 92.3083C250.836 84.5227 243.88 76.7331 236.537 68.9435C236.444 72.5502 236.444 76.541 236.444 80.1456C236.444 87.8362 236.588 90.5317 236.727 92.3083C235.965 92.1657 235.203 92.0687 234.489 92.0687C233.774 92.0687 233.012 92.1657 232.294 92.3083C232.535 90.9159 233.25 78.5136 233.25 68.7019C233.25 64.3744 233.059 61.4432 233.012 59.1359Z" fill="black"/>
<path d="M295.922 92.3082C294.398 92.2131 293.067 92.0705 291.73 92.0705C290.393 92.0705 289.013 92.2131 287.68 92.3082C286.676 89.0402 285.581 85.7248 284.389 82.4568C282.341 82.4053 280.338 82.3578 278.287 82.3578C276.622 82.3578 274.998 82.4053 273.335 82.4568C272.045 85.7248 270.996 88.9927 270.091 92.3082C269.328 92.2131 268.615 92.0705 267.853 92.0705C267.091 92.0705 266.373 92.2131 265.467 92.3082C267.8 86.9745 274.953 69.8585 279.05 58.8961C279.671 58.9931 280.242 59.1377 280.861 59.1377C281.481 59.1377 282.054 58.9931 282.675 58.8961C286.721 69.8585 292.303 84.475 295.922 92.3082ZM283.293 79.6167C281.911 75.7249 280.58 71.9242 279.05 68.1769C277.429 71.9242 275.952 75.7249 274.574 79.6167" fill="black"/>
<path d="M121.608 108.991C120.159 108.961 118.741 108.878 117.29 108.878C115.867 108.878 114.418 108.937 112.973 108.991V110.623C112.973 113.833 113.028 116.037 113.197 118.565C112.572 118.507 111.805 118.422 110.868 118.422C109.932 118.422 109.166 118.507 108.54 118.565C108.71 116.037 108.765 113.833 108.765 110.623V106.727C108.765 103.516 108.71 101.31 108.54 98.7867C109.166 98.8441 109.932 98.9293 110.868 98.9293C111.805 98.9293 112.572 98.8441 113.197 98.7867C113.028 101.282 112.973 103.487 112.973 106.671C113.937 106.697 115.302 106.727 117.32 106.727C119.334 106.727 120.528 106.697 121.608 106.671C121.608 103.487 121.551 101.282 121.378 98.7867C122.007 98.8441 122.772 98.9293 123.711 98.9293C124.647 98.9293 125.417 98.8441 126.039 98.7867C125.871 101.31 125.812 103.516 125.812 106.727V110.623C125.812 113.833 125.871 116.037 126.039 118.565C125.417 118.507 124.647 118.422 123.711 118.422C122.772 118.422 122.007 118.507 121.378 118.565C121.551 116.037 121.608 113.833 121.608 110.623" fill="black"/>
<path d="M132.548 106.727C132.548 103.516 132.493 101.31 132.318 98.7867C133.997 98.8164 135.701 98.9333 137.38 98.9333C140.164 98.9333 142.55 98.8738 143.318 98.7867C143.259 99.1313 143.202 99.474 143.202 99.9909C143.202 100.589 143.259 100.85 143.318 101.282C141.158 101.138 137.749 100.936 136.895 100.936C136.752 103.025 136.752 105.095 136.752 107.184C139.226 107.127 141.042 107.067 143.202 106.959C143.088 107.614 143.062 107.876 143.062 108.244C143.062 108.561 143.117 108.818 143.202 109.42C141.042 109.248 138.914 109.163 136.752 109.163C136.752 110.365 136.724 111.601 136.724 112.829C136.724 114.035 136.752 115.265 136.811 116.416C138.941 116.416 141.126 116.299 143.318 116.037C143.259 116.441 143.202 116.729 143.202 117.331C143.202 117.933 143.259 118.22 143.318 118.563C142.295 118.531 140.959 118.422 138.344 118.422C133.714 118.422 132.947 118.507 132.318 118.563C132.493 116.037 132.548 113.835 132.548 110.623" fill="black"/>
<path d="M164.968 118.562C164.057 118.507 163.264 118.42 162.465 118.42C161.672 118.42 160.849 118.507 160.052 118.562C159.455 116.614 158.803 114.635 158.09 112.686C156.867 112.66 155.675 112.631 154.454 112.631C153.459 112.631 152.493 112.66 151.499 112.686C150.729 114.635 150.111 116.588 149.567 118.562C149.113 118.507 148.687 118.42 148.234 118.42C147.778 118.42 147.352 118.507 146.812 118.562C148.206 115.382 152.465 105.178 154.908 98.6459C155.281 98.7014 155.622 98.7886 155.987 98.7886C156.359 98.7886 156.698 98.7014 157.067 98.6459C159.48 105.178 162.808 113.89 164.968 118.562ZM157.438 110.997C156.614 108.674 155.819 106.414 154.908 104.176C153.944 106.414 153.064 108.674 152.239 110.997" fill="black"/>
<path d="M169.826 106.727C169.826 103.516 169.771 101.31 169.596 98.7867C170.222 98.8441 170.99 98.9333 171.928 98.9333C172.865 98.9333 173.635 98.8441 174.257 98.7867C174.086 101.31 174.027 103.516 174.027 106.727V110.623C174.027 112.746 174.057 114.922 174.086 116.416C176.218 116.416 178.406 116.299 180.593 116.037C180.534 116.441 180.477 116.729 180.477 117.331C180.477 117.933 180.534 118.22 180.593 118.563C179.572 118.531 178.235 118.422 175.622 118.422C170.99 118.422 170.222 118.507 169.596 118.563C169.771 116.037 169.826 113.835 169.826 110.623" fill="black"/>
<path d="M187.216 103.459C187.216 102.37 187.216 101.338 187.127 100.938C186.02 100.938 183.636 101.11 181.93 101.31C182.014 100.88 182.073 100.48 182.073 100.05C182.073 99.6185 182.014 99.2184 181.93 98.7867C184.518 98.8738 185.796 98.9313 189.318 98.9313C192.841 98.9313 194.121 98.8738 196.534 98.7867C196.45 99.2184 196.391 99.6185 196.391 100.05C196.391 100.48 196.45 100.88 196.534 101.31C195.001 101.11 192.613 100.938 191.476 100.938C191.419 101.338 191.419 102.37 191.419 103.459V110.627C191.419 113.833 191.476 116.039 191.647 118.563C191.023 118.505 190.255 118.42 189.318 118.42C188.38 118.42 187.614 118.505 186.99 118.563C187.159 116.039 187.216 113.833 187.216 110.627" fill="black"/>
<path d="M214.434 108.991C212.985 108.961 211.566 108.878 210.115 108.878C208.691 108.878 207.244 108.937 205.799 108.991V110.623C205.799 113.833 205.854 116.037 206.021 118.565C205.397 118.507 204.629 118.422 203.694 118.422C202.756 118.422 201.99 118.507 201.364 118.565C201.535 116.037 201.594 113.833 201.594 110.623V106.727C201.594 103.516 201.535 101.31 201.364 98.7867C201.99 98.8441 202.756 98.9293 203.694 98.9293C204.629 98.9293 205.397 98.8441 206.021 98.7867C205.854 101.282 205.799 103.487 205.799 106.671C206.761 106.697 208.13 106.727 210.144 106.727C212.161 106.727 213.352 106.697 214.434 106.671C214.434 103.487 214.377 101.282 214.203 98.7867C214.831 98.8441 215.601 98.9293 216.537 98.9293C217.476 98.9293 218.241 98.8441 218.866 98.7867C218.697 101.31 218.638 103.516 218.638 106.727V110.623C218.638 113.833 218.697 116.037 218.866 118.565C218.241 118.507 217.476 118.422 216.537 118.422C215.601 118.422 214.831 118.507 214.203 118.565C214.377 116.037 214.434 113.833 214.434 110.623" fill="black"/>
<path d="M240.999 115.239C240.687 116.037 240.461 116.871 240.375 117.675C238.871 118.473 236.91 118.935 234.579 118.935C227.99 118.935 224.094 114.78 224.094 109.361C224.094 101.454 229.407 98.4162 235.372 98.4162C237.363 98.4162 239.863 99.0183 241.17 99.8185C240.801 100.765 240.603 101.769 240.516 102.744H240.12C238.702 100.967 237.249 100.193 235.235 100.193C232.193 100.193 228.757 102.857 228.757 108.933C228.757 114.837 232.221 117.158 235.488 117.158C237.306 117.158 239.409 116.299 240.63 115.005" fill="black"/>
<path d="M261.855 118.562C260.946 118.507 260.15 118.42 259.355 118.42C258.56 118.42 257.735 118.507 256.938 118.562C256.341 116.614 255.69 114.635 254.979 112.686C253.758 112.66 252.564 112.631 251.343 112.631C250.347 112.631 249.381 112.66 248.388 112.686C247.622 114.635 246.994 116.588 246.454 118.562C246.002 118.507 245.574 118.42 245.122 118.42C244.665 118.42 244.239 118.507 243.699 118.562C245.093 115.382 249.354 105.178 251.796 98.6459C252.167 98.7014 252.505 98.7886 252.876 98.7886C253.247 98.7886 253.585 98.7014 253.958 98.6459C256.373 105.178 259.695 113.89 261.855 118.562ZM254.325 110.997C253.5 108.674 252.705 106.414 251.796 104.176C250.832 106.414 249.953 108.674 249.128 110.997" fill="black"/>
<path d="M271.179 109.448H270.922V110.625C270.922 113.835 270.979 116.041 271.148 118.563C270.523 118.507 269.756 118.42 268.821 118.42C267.88 118.42 267.115 118.507 266.488 118.563C266.659 116.041 266.714 113.835 266.714 110.625V106.727C266.714 103.516 266.659 101.312 266.488 98.7888C267.115 98.8442 267.88 98.9293 268.821 98.9293C269.842 98.9293 271.063 98.7888 272.993 98.7888C275.866 98.7888 276.914 99.0462 277.91 99.7611C279.048 100.593 279.757 101.853 279.757 103.546C279.757 106.327 278.165 108.103 275.353 108.818C277.169 112.058 279.333 115.322 281.406 118.563C280.552 118.507 279.7 118.42 278.848 118.42C277.994 118.42 277.114 118.507 276.262 118.563L271.179 109.448ZM271.004 100.421C270.947 103.027 270.922 105.608 270.922 108.218C271.148 108.246 271.346 108.274 271.544 108.274C274.046 108.274 275.408 106.867 275.408 104.178C275.408 100.793 274.104 100.421 271.004 100.421Z" fill="black"/>
<path d="M285.752 106.727C285.752 103.516 285.695 101.31 285.526 98.7867C287.201 98.8164 288.905 98.9333 290.584 98.9333C293.366 98.9333 295.751 98.8738 296.519 98.7867C296.46 99.1313 296.405 99.474 296.405 99.9909C296.405 100.589 296.46 100.85 296.519 101.282C294.361 101.138 290.949 100.936 290.097 100.936C289.955 103.025 289.955 105.095 289.955 107.184C292.427 107.127 294.247 107.067 296.405 106.959C296.291 107.614 296.264 107.876 296.264 108.244C296.264 108.561 296.321 108.818 296.405 109.42C294.247 109.248 292.117 109.163 289.955 109.163C289.955 110.365 289.928 111.601 289.928 112.829C289.928 114.035 289.955 115.265 290.012 116.416C292.142 116.416 294.33 116.299 296.519 116.037C296.46 116.441 296.405 116.729 296.405 117.331C296.405 117.933 296.46 118.22 296.519 118.563C295.496 118.531 294.161 118.422 291.548 118.422C286.916 118.422 286.15 118.507 285.526 118.563C285.695 116.037 285.752 113.835 285.752 110.623" fill="black"/>
<path d="M101.183 118.505H70.8636C70.8636 118.505 70.9146 74.8496 70.8636 70.4725C70.7635 62.0611 60.4869 59.1456 60.4869 59.1456H80.824C86.9656 59.1456 101.155 61.7223 101.155 73.164C101.155 77.8837 101.183 118.505 101.183 118.505Z" fill="black"/>
<path d="M75.403 55.5132C81.7625 55.5132 86.9164 50.0469 86.9164 43.3071C86.9164 36.5633 81.7625 31.1048 75.403 31.1048C69.0356 31.1048 63.8836 36.5633 63.8836 43.3071C63.8836 50.0469 69.0356 55.5132 75.403 55.5132Z" fill="black"/>
<path d="M67.296 118.497H37.0221C37.0221 118.497 37.0791 74.8514 37.0221 70.4823C36.9142 62.0669 26.6573 59.1516 26.6573 59.1516H46.9609C53.0986 59.1516 67.2705 61.7283 67.2705 73.17C67.2705 77.8877 67.296 118.497 67.296 118.497Z" fill="black"/>
<path d="M41.8345 55.4737C48.192 55.4737 53.3538 50.0073 53.3538 43.2674C53.3538 36.5236 48.192 31.0651 41.8345 31.0651C35.475 31.0651 30.3132 36.5236 30.3132 43.2674C30.3132 50.0073 35.475 55.4737 41.8345 55.4737Z" fill="black"/>
<path d="M33.4939 118.503H7.7712C7.7712 118.503 7.81832 90.0741 7.7712 86.7883C7.68873 80.4763 0 78.2819 0 78.2819H18.2401C22.8404 78.2819 33.4723 80.2227 33.4723 88.8124C33.4723 92.3458 33.4939 118.503 33.4939 118.503Z" fill="black"/>
<path d="M12.3126 74.5822C17.0876 74.5822 20.9536 70.4845 20.9536 65.4242C20.9536 60.3717 17.0876 56.2778 12.3126 56.2778C7.5454 56.2778 3.67944 60.3717 3.67944 65.4242C3.67944 70.4845 7.5454 74.5822 12.3126 74.5822Z" fill="black"/>
</svg>
