<svg width="300" height="150" viewBox="0 0 300 150" fill="none" xmlns="http://www.w3.org/2000/svg">
<path d="M100.406 102.636V105.267H90.604C90.5981 105.19 90.5922 105.115 90.5863 105.042L90.5686 104.82L90.5684 104.817L90.5684 104.817C90.5164 104.17 90.4724 103.622 90.4724 103.03C90.4724 93.8203 90.4724 84.6102 90.5382 75.4002C90.5382 72.5057 89.2882 70.7952 86.5252 69.94C84.2227 69.2164 81.7229 69.348 79.4862 70.269C77.5126 71.0584 75.8022 72.6373 75.8679 75.5976C75.9666 82.3572 75.9543 89.1167 75.9419 95.8763C75.9378 98.1294 75.9337 100.382 75.9337 102.636C75.9337 103.389 75.8827 104.142 75.8256 104.985L75.8169 105.114L75.8022 105.333H66.1974C66.1747 105.038 66.1442 104.742 66.1139 104.45C66.0565 103.895 66.0001 103.35 66.0001 102.833C66.0001 99.7653 65.9928 96.6978 65.9855 93.6278C65.9709 87.4805 65.9562 81.3234 66.0001 75.1371C66.0001 72.3741 64.7502 70.5979 62.3161 69.5453C61.7898 69.348 61.2635 69.1506 60.6714 69.019C57.5137 68.2954 54.6191 68.9532 51.6588 70.5979V105.333C48.3695 105.464 45.2776 105.464 42.0541 105.333V64.414C43.6987 62.901 45.7381 62.1115 47.7774 61.3879C51.3956 60.0722 55.2112 59.217 59.0926 59.5459C63.4344 59.9406 67.0527 60.7958 70.6709 65.2692C71.2242 64.8798 71.7648 64.4521 72.3086 64.0219L72.3087 64.0218C73.5101 63.0712 74.7273 62.1081 76.1311 61.5195C82.7755 58.6249 89.2225 59.2827 95.0116 63.6246C98.7614 66.3876 100.274 70.4663 100.34 75.0713C100.384 78.4507 100.369 81.8595 100.355 85.2584V85.2591L100.355 85.2611C100.348 86.956 100.34 88.6484 100.34 90.3336L100.406 102.636Z" fill="black"/>
<path d="M204.442 106.074L204.441 106.074C203.389 106.132 202.355 106.188 201.321 106.188C199.085 106.188 196.848 105.727 194.809 104.806C189.743 102.57 187.309 98.4253 186.651 93.0966C186.52 91.8467 186.454 90.6625 186.52 89.4126V45.8624V43.0995C189.875 43.0337 192.967 43.0337 196.19 43.0995V59.7432H205.466C205.532 63.0983 205.532 66.1902 205.466 69.4795C203.874 69.6526 202.3 69.6435 200.715 69.6344C199.288 69.6262 197.853 69.618 196.387 69.7427C196.256 70.3347 196.19 70.861 196.19 71.4531V89.9389C196.19 90.4652 196.19 90.9257 196.256 91.452C196.585 94.4123 198.295 96.3859 201.256 96.978C202.295 97.2039 203.396 97.3057 204.538 97.4113L204.541 97.4115C205.061 97.4595 205.589 97.5084 206.124 97.57V105.991C205.556 106.013 204.996 106.044 204.442 106.074Z" fill="black"/>
<path d="M229.478 105.859C227.307 106.32 225.07 106.385 222.899 105.991C221.32 105.793 219.741 105.333 218.294 104.741C213.097 102.504 210.795 98.1621 210.137 92.7677C210.005 91.452 209.939 90.1362 210.005 88.8205V45.4677V43.0995H219.741V59.6775H228.425C228.523 62.1852 228.512 64.5091 228.499 66.8966V66.897V66.8977V66.8994L228.497 67.3194L228.495 67.7187C228.494 67.9447 228.493 68.1716 228.493 68.3995C228.492 68.7135 228.491 69.0295 228.491 69.348C226.912 69.5632 225.393 69.5437 223.868 69.5241C222.596 69.5078 221.321 69.4914 220.005 69.6111C219.873 70.0716 219.807 70.5979 219.807 71.0584C219.807 73.1855 219.8 75.3125 219.793 77.4396V77.444C219.778 81.6967 219.763 85.9494 219.807 90.202C219.807 94.215 221.715 96.3859 225.728 97.0438C226.947 97.2362 228.228 97.3035 229.449 97.3677L229.543 97.3727C229.938 99.3463 229.938 103.82 229.478 105.859Z" fill="black"/>
<path d="M282.567 76.3212C282.665 82.8361 282.653 89.3879 282.641 95.9213V95.9274V95.9336C282.637 98.1045 282.633 100.273 282.633 102.438V104.938C280.856 105.399 275.593 105.53 272.896 105.135L272.88 104.955C272.82 104.302 272.765 103.699 272.765 103.096V75.2029C272.699 71.5847 273.883 68.098 276.12 65.335C279.146 61.651 283.225 59.8748 287.83 59.4801C290.33 59.2169 292.895 59.1512 295.527 60.0064C295.592 62.8352 295.592 65.5982 295.527 68.5585C293.027 68.1638 290.79 68.098 288.553 68.6901C285.33 69.6111 282.567 71.8478 282.567 76.3212Z" fill="black"/>
<path d="M294.277 106.056C291.25 105.925 288.816 103.425 288.751 100.399C288.685 97.3069 291.119 94.7413 294.211 94.6097C297.303 94.5439 299.868 96.978 300 100.07V100.399C300 103.557 297.434 106.056 294.277 106.056Z" fill="black"/>
<path fill-rule="evenodd" clip-rule="evenodd" d="M255.644 87.0772C259.92 87.0772 264.212 87.0772 268.554 87.0443C268.554 85.4618 268.58 83.9178 268.605 82.3983L268.605 82.3959C268.661 79.0524 268.715 75.8275 268.489 72.5714C268.225 68.0322 265.857 64.414 261.976 62.0457C255.2 57.967 248.029 57.8354 240.99 61.1905C235.596 63.8219 232.833 68.4269 232.767 74.4792L232.766 74.5271C232.701 80.3657 232.636 86.1391 232.833 91.9124C232.898 96.1227 234.938 100.07 238.424 102.504C245.398 107.701 254.937 107.833 262.041 102.833C264.212 101.386 265.989 99.412 267.173 97.1095C266.91 96.8464 266.646 96.649 266.383 96.4516C264.016 95.0704 261.582 93.6893 259.149 92.3081L259.147 92.3071C259.072 92.4007 258.997 92.489 258.924 92.5734C258.878 92.6264 258.832 92.6781 258.788 92.7284L258.787 92.7289L258.783 92.7335L258.783 92.7336C258.651 92.8831 258.528 93.0227 258.423 93.1623C255.594 97.1753 250.134 98.3594 245.858 95.9254C244.345 95.0701 243.095 93.886 242.898 92.1098C242.759 91.0418 242.783 89.9079 242.81 88.6857V88.6847V88.6838L242.81 88.683L242.81 88.6829C242.821 88.1745 242.832 87.6508 242.832 87.1101C247.108 87.0772 251.368 87.0772 255.644 87.0772ZM246.006 68.9905C244.428 69.7141 242.98 70.9641 242.849 72.8718C242.751 74.2443 242.762 75.6168 242.774 77.0708L242.775 77.071V77.0718L242.783 78.5952H258.966C258.966 77.8309 258.983 77.0834 259 76.3441L259 76.3423C259.016 75.6188 259.032 74.9032 259.032 74.1876C259.098 72.214 257.979 70.372 256.203 69.3852C254.638 68.4772 253.028 68.0014 251.401 67.9151C249.61 67.8202 247.799 68.1976 246.006 68.9905Z" fill="black"/>
<path fill-rule="evenodd" clip-rule="evenodd" d="M182.326 86.3702C182.34 86.2893 182.354 86.2063 182.375 86.1234C182.375 84.4412 182.396 82.7589 182.417 81.0767L182.417 81.0758L182.417 81.071V81.0706C182.449 78.5446 182.48 76.0185 182.441 73.4925C182.244 68.4928 179.941 64.5456 175.665 61.98C168.889 57.967 161.784 57.8355 154.811 61.1906C149.351 63.822 146.588 68.3612 146.522 74.4793C146.456 80.0053 146.456 85.5313 146.522 91.0573C146.588 96.3859 148.824 100.662 153.429 103.359C160.403 107.504 167.573 107.635 174.678 103.557C177.375 102.044 179.612 99.741 180.994 96.9122L172.968 92.2414C172.77 92.4388 172.573 92.6361 172.376 92.8993C170.402 96.4517 164.679 98.5569 159.876 95.9912C158.232 95.136 156.85 93.8861 156.653 91.9125C156.567 90.9256 156.593 89.9386 156.622 88.8604C156.637 88.2856 156.653 87.6849 156.653 87.0444H169.481C170.205 87.0444 170.928 87.0517 171.652 87.059H171.653H171.654C173.1 87.0736 174.547 87.0882 175.994 87.0444C176.672 87.0225 177.358 87.0443 178.047 87.0662C179.427 87.1101 180.817 87.1543 182.178 86.847C182.268 86.7119 182.296 86.5459 182.326 86.3702ZM159.745 69.2822C158.166 70.0058 156.719 71.2558 156.587 73.1635C156.489 74.536 156.501 75.9085 156.513 77.3625L156.513 77.3627V77.3635L156.521 78.8869H172.705C172.705 78.1226 172.721 77.3751 172.738 76.6358L172.738 76.634C172.754 75.9105 172.77 75.1949 172.77 74.4793C172.836 72.5057 171.718 70.6637 169.942 69.6769C168.376 68.7689 166.766 68.2931 165.139 68.2068C163.348 68.1119 161.538 68.4893 159.745 69.2822Z" fill="black"/>
<path fill-rule="evenodd" clip-rule="evenodd" d="M35.1084 103.806L35.4659 103.68C35.6401 103.618 35.8184 103.555 36.0019 103.491L35.9361 101.122V75.6634C35.9361 74.7424 35.9361 73.8871 35.8703 73.0319C35.5414 69.019 33.9625 65.7297 30.6732 63.1641C27.3839 60.5984 23.6342 59.4801 19.5554 59.217C13.3716 58.8222 7.77979 60.4011 3.10901 64.6114C2.82076 64.8996 2.54811 65.2034 2.26827 65.5153C1.97331 65.844 1.67037 66.1816 1.33279 66.5192L6.793 71.5847C6.95747 71.5518 7.05615 71.5518 7.12193 71.5518C7.18772 71.5518 7.22061 71.5518 7.2535 71.5189C7.38509 71.4202 7.53313 71.305 7.68117 71.1899L7.68133 71.1898C7.758 71.1301 7.83467 71.0705 7.90905 71.0132C7.9782 70.9599 8.04536 70.9085 8.10872 70.861C10.8059 68.6243 14.3584 67.5059 17.845 67.8349C20.6738 68.098 23.1737 69.0848 24.8841 71.5847C25.9367 73.1635 26.3972 74.874 25.8051 76.9133L23.4368 76.2555C20.3449 75.4003 17.1871 75.0055 13.9637 75.5318C11.2006 75.9265 8.56922 76.6502 6.20093 78.229C1.00386 81.6499 -0.640785 87.1101 0.214427 93.294C0.806499 97.57 2.71429 101.188 6.46407 103.557C8.635 104.938 11.0691 105.793 13.5689 106.188C20.0159 107.306 26.3314 106.385 32.5152 104.675C33.3687 104.424 34.1844 104.134 35.1074 103.807L35.1084 103.806ZM13.5691 85.0708C11.0034 85.9918 9.75349 88.0311 9.81928 90.8599C9.81928 93.7545 10.8718 95.9912 13.5691 97.1753C17.7136 99.0174 21.8581 98.4253 26.0684 97.1096V85.6628C21.9239 83.9524 17.7136 83.5577 13.5691 85.0708Z" fill="black"/>
<path fill-rule="evenodd" clip-rule="evenodd" d="M133.891 104.675C139.285 101.78 141.522 96.9122 141.72 91.0573C141.885 86.5364 141.819 81.877 141.755 77.3112V77.311V77.3101C141.743 76.4282 141.73 75.5498 141.72 74.6766C141.654 69.2821 139.285 65.0719 134.746 62.1115C130.865 59.5459 126.128 58.4933 121.458 59.1511C120.17 59.3172 118.936 59.6144 117.638 59.9267C116.879 60.1092 116.099 60.297 115.274 60.4669V43.0336H105.669V103.491C112.642 106.188 119.681 107.569 127.049 106.714C129.418 106.517 131.786 105.793 133.891 104.675ZM128.628 69.2822C125.01 66.9139 119.023 66.8481 115.405 69.5453V97.57C119.681 99.0173 123.826 99.3462 127.839 97.5042C130.339 96.3201 131.786 94.3465 131.786 91.5177V74.9397C131.786 72.4399 130.602 70.5979 128.628 69.2822Z" fill="black"/>
</svg>
