<svg width="300" height="150" viewBox="0 0 300 150" fill="none" xmlns="http://www.w3.org/2000/svg">
<path d="M256.863 107.635C256.055 108.444 257.349 109.416 256.863 110.149C253.055 109.662 252.322 110.471 251.596 115.094C248.191 115.094 244.787 115.094 240.973 115.094C241.541 113.313 241.945 111.848 242.596 109.744C240 108.854 237.404 107.635 234.568 106.99C232.705 106.504 231.973 105.449 231.486 103.991C231 102.449 231.24 101.073 232.541 99.7718C234.486 97.9085 236.273 95.8812 237.973 93.7718C238.781 92.7171 239.267 91.3402 239.754 90.0394C239.918 89.7171 239.754 88.6624 239.508 88.4984C238.617 89.7933 236.426 93.1214 235.775 93.2034C234.885 93.3675 235.529 89.471 234.152 90.0394C232.693 90.6898 233.748 98.8753 224.83 97.2581C227.344 93.4495 226.125 90.0394 221.912 93.0394C222.316 89.8753 221.994 86.8753 221.344 84.1214C221.021 82.7445 219.721 81.6078 218.912 80.3128C218.103 78.8539 216.562 77.559 216.398 76.0179C215.912 72.5316 216.152 67.5863 215.912 64.1C215.83 63.3676 214.693 63.6137 214.131 63.2914C210.322 60.9418 210.322 58.1 211.781 53.8051C212.268 52.2641 213.562 50.6411 215.027 49.3462C214.863 52.1001 215.432 53.4008 216.082 54.5375C216.246 54.8598 216.973 55.4282 217.219 55.3461C217.301 54.0512 217.301 52.7504 217.465 51.4555C217.869 47.4829 219.41 45.5376 223.383 45.4555C225.574 45.3735 228.164 45.7778 230.355 45.5376C231.732 45.3735 233.924 45.2915 234.41 44.4009C234.574 44.1548 234.492 43.5102 234.246 43.3462C233.678 42.9419 232.383 43.1821 231.492 43.1821C230.601 43.1821 229.06 43.2641 228.088 43.2641C228.574 38.7231 233.683 34.3462 238.547 34.0181C243.006 33.6958 248.765 35.0728 252.328 37.5044C258.978 41.6411 261.978 45.0454 269.109 50.6411C273 53.477 276.404 55.7504 280.377 58.4223C280.945 58.8266 282.24 59.395 283.377 59.8813C282.568 57.0453 281.754 54.7719 281.185 52.5044C280.863 51.2094 280.699 49.8266 280.699 48.5317C280.617 44.8813 282.48 43.1821 285.808 44.313C290.431 45.936 295.213 48.4497 300 50.477C296.349 53.7993 291.972 54.3676 289.781 50.3129C289.377 49.7446 288.972 49.1762 288.486 48.7719C286.377 47.0669 284.836 47.7173 284.349 48.6079C284.027 49.1762 284.267 50.313 284.513 51.0395C285.732 53.7934 287.109 56.4711 288.65 59.0668C290.677 62.5531 293.191 65.7992 295.054 69.3617C298.623 76.3343 298.136 83.307 294.082 90.1156C293.273 91.4925 293.191 94.0062 293.836 95.5472C294.486 97.0882 294.24 97.8968 295.295 99.4378C296.836 101.705 294.562 102.52 293.103 106.897C292.453 108.76 292.453 111.356 292.295 113.383C292.131 114.76 291.726 115.328 290.349 115.328C288.082 115.246 285.808 115.328 282.808 115.328C283.781 113.623 283.541 112.082 284.513 111.274C287.677 109.246 288.082 106.733 287.595 103.328C286.787 100.082 286.136 97.8147 284.842 97.2464C283.787 96.7601 281.842 96.7601 278.924 97.2464C278.519 97.6507 278.842 98.5413 278.842 98.6233C280.547 101.137 278.842 101.869 277.06 103.328C273.492 106.082 270.978 108.192 269.519 112.651C269.355 113.219 269.197 115.246 268.711 115.328C266.115 115.492 261.82 115.41 259.224 115.41C259.06 115.164 259.793 114.192 259.793 113.869C259.711 112.41 260.929 111.924 261.984 111.033C265.471 108.198 266.765 104.465 267.984 100.492C268.635 98.4651 265.388 97.7386 264.176 97.8968C262.799 98.0608 261.258 97.9788 259.881 101.061C259.476 102.033 259.23 103.17 259.072 104.225C258.908 105.198 259.236 107.143 258.99 107.629C258.972 107.717 257.109 107.717 256.863 107.635ZM260.678 57.7719C260.355 57.6899 259.383 57.3676 259.219 57.4496C265.541 66.2035 265.705 73.7445 257.924 80.9632C259.06 80.9632 260.355 80.7992 260.924 80.7171C266.678 80.1488 269.842 78.8539 277.465 79.1761C285.088 79.0941 287.601 81.1214 290.197 88.0941C290.443 88.012 290.683 87.93 290.847 87.7718C296.443 81.0394 294.17 69.3676 286.224 65.8813C277.793 62.2309 270.492 57.1274 263.683 51.1274C262.951 50.477 261.492 49.2641 260.765 48.6958C260.519 48.8598 260.847 49.8325 260.847 49.8325C260.847 49.8325 263.279 55.5102 264.656 58.8325C262.863 58.4164 261.65 58.0942 260.678 57.7719ZM244.781 50.1489C244.863 53.5532 243.486 55.6625 241.131 57.3676C239.754 58.4223 239.185 60.2035 240.644 61.8266C242.021 63.3676 243.644 63.1215 245.185 62.0727C248.836 59.5532 248.836 54.2036 244.781 50.1489ZM248.918 95.9573C246.486 97.9847 244.055 100.094 241.699 102.121C243.076 102.69 244.535 102.285 245.508 102.772C246.48 103.258 246.885 104.717 247.535 105.772C249.89 103.744 250.623 99.0394 248.918 95.9573ZM222.891 79.9027C223.377 80.225 224.836 79.7386 225.322 80.1488C225.973 80.6351 226.781 82.2582 228.158 82.2582C229.535 82.2582 230.103 80.8812 230.836 80.3949C231.322 80.0726 233.027 80.3128 233.514 80.0726C231.891 77.2308 225.246 76.9847 222.891 79.9027ZM239.432 66.5258C238.699 67.3344 237.726 68.3891 237.164 69.2797C236.918 69.684 236.678 70.4984 236.918 70.8207C237.24 71.143 238.295 71.0668 238.699 70.8207C239.754 70.2582 240.164 67.2582 239.432 66.5258Z" fill="black"/>
<path d="M9.80856 102.204L5.51365 115.34H0L15.082 73.5864H19.4589L34.7811 115.34H29.0273L24.5683 102.204H9.80856ZM22.7812 97.0942L17.4316 82.0942C16.7812 84.6079 12.082 97.0121 12.082 97.0121L22.7812 97.0942Z" fill="black"/>
<path d="M37.8633 93.2856C37.8633 90.2036 37.7813 84.936 37.7813 84.936L42.7265 84.854L42.8086 87.4497L43.3769 87.3677C44.9179 84.5317 47.0273 84.0454 50.5957 84.0454C54.3281 84.0454 56.8417 85.3403 58.0546 88.8266L58.705 88.7446C59.5956 87.0395 60.164 86.477 61.3827 85.4985C63.164 84.4438 65.1151 84.0396 67.787 84.0396C71.4374 84.0396 76.869 87.2036 76.869 97.5805V115.258H72.0057V98.3129C72.0057 92.559 70.0604 89.0669 66.0058 89.0669C63.1698 89.0669 61.0605 90.0395 60.1699 92.7173C59.9238 93.4497 59.6835 95.7172 59.6835 96.7719V115.258H54.8203V97.3403C54.8203 92.559 52.8749 89.0727 49.0664 89.0727C45.9023 89.0727 44.2031 90.3676 43.3887 93.1274C43.0664 93.936 42.8203 96.2915 42.8203 97.1821V115.264H37.4707L37.8633 93.2856Z" fill="black"/>
<path d="M85.8633 101.313C86.0273 108.69 90.082 111.204 95.5957 111.204C99.5683 111.204 102 108.286 103.219 106.258L106.951 109.745C104.355 113.477 100.301 115.909 95.5195 115.909C86.1973 115.909 80.6836 109.827 80.6836 100.827C80.6836 91.8266 84.8203 84.6899 94.875 84.6899C104.766 84.6899 108.252 93.2856 108.252 98.7993C108.252 99.936 108.088 100.745 108.088 101.313H85.8633ZM102.568 97.4165C102.65 93.9301 100.541 88.9028 94.3769 88.9028C88.7812 88.9028 86.3496 93.6841 85.9453 97.4165H102.568Z" fill="black"/>
<path d="M111.404 94.6627C111.404 91.0944 111.404 84.9303 111.404 84.9303H116.514L116.432 88.6627L116.754 88.8268C118.213 85.7448 121.535 84.5319 123.644 84.6081C124.213 84.6081 126.48 84.444 126.967 84.6081V89.7174C126.48 89.5534 124.049 89.7174 123.398 89.7174C119.83 89.7174 117.398 92.6354 116.666 96.6901C116.584 97.4225 116.42 98.3131 116.42 99.2037V115.176H111.475V94.6627H111.404Z" fill="black"/>
<path d="M130.705 115.745V85.7451H135.732V115.745H130.705ZM130.705 83.0674V77.2314H135.732V83.0674H130.705Z" fill="black"/>
<path d="M149.678 76.7446V85.3403H157.623V89.477H149.678V105.614C149.678 109.346 150.65 111.45 153.41 111.45C154.705 111.45 156.732 110.799 157.705 110.073V114.778C156.732 115.182 155.273 115.996 152.109 115.996C149.76 115.914 147.891 115.188 146.678 113.729C145.219 112.106 144.732 109.434 144.732 105.948V89.5708H139.465V85.434H144.732V76.8384H149.678V76.7446Z" fill="black"/>
<path d="M179.35 115.34L178.945 111.532H178.781C177.076 113.881 173.754 115.991 169.459 115.991C163.295 115.991 160.137 111.696 160.137 107.395C160.137 99.2036 166.705 96.2036 178.541 96.2856V95.6352C178.541 93.1216 177.809 88.7446 171.568 88.7446C168.732 88.7446 166.541 90.2856 164.35 92.313L161.027 89.2309C165.082 85.6626 168.809 84.2856 172.623 84.2856C181.945 84.2856 183.973 91.0181 183.973 97.018V108.209C183.973 110.805 184.137 113.319 184.459 115.428H179.35V115.34ZM178.541 100.663C172.459 100.498 165.568 100.909 165.568 106.745C165.568 110.313 168 111.286 170.836 111.286C174.809 111.286 177.322 109.422 178.213 106.909C178.377 106.34 178.535 105.69 178.535 105.204V100.663H178.541Z" fill="black"/>
<path d="M190.781 106.258C191.59 107.963 192.973 111.286 197.918 111.286C201.568 111.286 203.754 109.422 203.754 107.477C203.754 104.881 202.213 102.127 198.24 101.963C191.021 101.641 187.863 97.018 187.863 93.4497C187.863 88.5864 192 84.2856 197.918 84.2856C200.672 84.2856 205.295 85.4224 208.459 90.1216L204 93.2856C202.541 90.0395 200.754 88.9907 198.164 88.9907C195.164 88.9907 193.137 90.6958 193.137 92.8813C193.137 95.395 195.568 97.3403 200.918 97.9907C206.027 98.6411 208.863 102.45 208.863 106.909C208.863 112.176 204.404 116.477 197.836 115.991C189.809 115.422 187.945 111.368 186.809 109.827L190.781 106.258Z" fill="black"/>
<path d="M212.678 110.553C212.924 110.471 213.246 110.471 213.65 110.471C214.137 110.471 214.541 110.553 214.787 110.717C214.951 110.881 215.109 111.122 215.109 111.368C215.109 111.772 214.787 112.1 214.377 112.176C214.699 112.258 214.863 112.499 214.945 112.827C215.109 113.313 215.191 113.635 215.268 113.717H214.781C214.699 113.635 214.617 113.313 214.535 112.909C214.453 112.422 214.213 112.258 213.803 112.258H213.316V113.717H212.83V110.553H212.678ZM213.164 112.012H213.65C214.137 112.012 214.541 111.766 214.541 111.362C214.541 110.958 214.219 110.711 213.65 110.711C213.404 110.711 213.246 110.711 213.164 110.711V112.012Z" fill="black"/>
<path d="M213.891 115.827C211.863 115.827 210.158 114.204 210.158 112.094C210.158 110.067 211.781 108.362 213.891 108.362C215.918 108.362 217.623 109.985 217.623 112.094C217.623 114.204 215.918 115.827 213.891 115.827ZM213.891 109.499C212.432 109.499 211.213 110.717 211.213 112.176C211.213 113.635 212.432 114.854 213.891 114.854C215.35 114.854 216.568 113.635 216.568 112.176C216.568 110.717 215.35 109.499 213.891 109.499Z" fill="black"/>
</svg>
